<svg width="18" height="20" viewBox="0 0 18 20" fill="none" xmlns="http://www.w3.org/2000/svg">
<path fill-rule="evenodd" clip-rule="evenodd" d="M10.3079 3.03423C9.43732 2.19887 8.06281 2.19887 7.19224 3.03423L2.5658 7.47357C2.45245 7.58234 2.3762 7.72402 2.34787 7.87854C1.79373 10.9004 1.75283 13.994 2.22687 17.0295L2.33939 17.75H5.31585V11.5387C5.31585 11.1244 5.65164 10.7887 6.06585 10.7887H11.4343C11.8485 10.7887 12.1843 11.1244 12.1843 11.5387V17.75H15.1607L15.2732 17.0295C15.7473 13.994 15.7064 10.9004 15.1523 7.87854C15.1239 7.72402 15.0477 7.58234 14.9343 7.47357L10.3079 3.03423ZM6.15369 1.95191C7.60464 0.559649 9.89549 0.559649 11.3464 1.95191L15.9729 6.39125C16.3134 6.71804 16.5425 7.14373 16.6277 7.60799C17.2122 10.7956 17.2553 14.059 16.7553 17.2609L16.5745 18.4184C16.4998 18.8971 16.0875 19.25 15.603 19.25H11.4343C11.0201 19.25 10.6843 18.9142 10.6843 18.5V12.2887H6.81585V18.5C6.81585 18.9142 6.48007 19.25 6.06585 19.25H1.89712C1.41264 19.25 1.00035 18.8971 0.9256 18.4184L0.744837 17.2609C0.244789 14.059 0.287936 10.7956 0.872466 7.60799C0.957599 7.14373 1.18668 6.71804 1.52725 6.39125L6.15369 1.95191Z" fill="#616161"/>
</svg>
