<svg width="25" height="25" viewBox="0 0 25 25" fill="none" xmlns="http://www.w3.org/2000/svg">
<path d="M13.75 10.25C13.75 9.8358 13.4142 9.50002 13 9.50002H7C6.58579 9.50002 6.25 9.8358 6.25 10.25C6.25 10.6642 6.58579 11 7 11H13C13.4142 11 13.75 10.6642 13.75 10.25Z" fill="#616161"/>
<path d="M12.75 13.25C12.75 12.8358 12.4142 12.5 12 12.5H7C6.58579 12.5 6.25 12.8358 6.25 13.25C6.25 13.6642 6.58579 14 7 14H12C12.4142 14 12.75 13.6642 12.75 13.25Z" fill="#616161"/>
<path d="M13 15.5C13.4142 15.5 13.75 15.8358 13.75 16.25C13.75 16.6642 13.4142 17 13 17H7C6.58579 17 6.25 16.6642 6.25 16.25C6.25 15.8358 6.58579 15.5 7 15.5H13Z" fill="#616161"/>
<path fill-rule="evenodd" clip-rule="evenodd" d="M6.25 22.25H19.25C20.7688 22.25 22 21.0188 22 19.5V14C22 13.5858 21.6642 13.25 21.25 13.25H18V5.44321C18 4.01981 16.3911 3.19184 15.2328 4.01918L15.0578 4.14421C14.2773 4.7017 13.2201 4.69983 12.4359 4.13972C11.1321 3.20839 9.36794 3.20839 8.06407 4.13972C7.27992 4.69983 6.2227 4.7017 5.44221 4.14421L5.26717 4.01918C4.1089 3.19184 2.5 4.01981 2.5 5.44321V18.5C2.5 20.5711 4.17893 22.25 6.25 22.25ZM8.93593 5.36032C9.71825 4.80152 10.7818 4.80152 11.5641 5.36032C12.8661 6.29035 14.6239 6.29745 15.9296 5.36481L16.1047 5.23978C16.2702 5.12159 16.5 5.23987 16.5 5.44321V19.5C16.5 19.9501 16.6081 20.375 16.7999 20.75H6.25C5.00736 20.75 4 19.7427 4 18.5V5.44321C4 5.23987 4.22984 5.12159 4.39531 5.23978L4.57036 5.36481C5.87605 6.29745 7.6339 6.29034 8.93593 5.36032ZM18 19.5V14.75H20.5V19.5C20.5 20.1904 19.9404 20.75 19.25 20.75C18.5596 20.75 18 20.1904 18 19.5Z" fill="#616161"/>
</svg>
