<svg width="25" height="25" viewBox="0 0 25 25" fill="none" xmlns="http://www.w3.org/2000/svg">
<path fill-rule="evenodd" clip-rule="evenodd" d="M8.00002 7.74976V7.62988C8.00002 5.46214 9.46763 3.5694 11.5671 3.02954C12.3431 2.83 13.157 2.83 13.933 3.02954C16.0324 3.5694 17.5 5.46214 17.5 7.62988V7.74976H19.0011C19.5724 7.74976 20.0573 8.16874 20.1401 8.73398L20.3588 10.2264C20.7893 13.1649 20.7893 16.1504 20.3588 19.0889C20.1508 20.5079 19.0065 21.605 17.58 21.7529L16.9511 21.8181C14.1579 22.1078 11.3421 22.1078 8.54888 21.8181L7.92001 21.7529C6.49347 21.605 5.34918 20.5079 5.14127 19.0889C4.71072 16.1504 4.71072 13.1649 5.14127 10.2264L5.35994 8.73398C5.44276 8.16874 5.92761 7.74976 6.49889 7.74976H8.00002ZM11.9406 4.48228C12.4716 4.34575 13.0284 4.34575 13.5594 4.48228C14.9959 4.85166 16 6.14669 16 7.62988V7.74976H9.50002V7.62988C9.50002 6.14669 10.5042 4.85166 11.9406 4.48228ZM8.00002 9.24976V11.4998C8.00002 11.914 8.3358 12.2498 8.75002 12.2498C9.16423 12.2498 9.50002 11.914 9.50002 11.4998V9.24976H16V11.4998C16 11.914 16.3358 12.2498 16.75 12.2498C17.1642 12.2498 17.5 11.914 17.5 11.4998V9.24976H18.6996L18.8746 10.4439C19.284 13.2381 19.284 16.0772 18.8746 18.8714C18.7662 19.6115 18.1693 20.1837 17.4253 20.2609L16.7964 20.3261C14.106 20.6051 11.394 20.6051 8.70361 20.3261L8.07474 20.2609C7.3307 20.1837 6.73386 19.6115 6.62542 18.8714C6.21601 16.0772 6.21601 13.2381 6.62542 10.4439L6.80039 9.24976H8.00002Z" fill="#616161"/>
</svg>
