<svg width="114" height="114" viewBox="0 0 114 114" fill="none" xmlns="http://www.w3.org/2000/svg">
<circle opacity="0.5" cx="57" cy="57" r="57" fill="#E5CFA8"/>
<g style="mix-blend-mode:multiply">
<circle cx="56.9999" cy="57" r="51.1034" fill="#E5CFA8"/>
</g>
<path d="M55.1885 67.3182C55.1885 66.3177 56.0005 65.4912 57.001 65.4912C58.0015 65.4912 58.8135 66.2911 58.8135 67.2916V67.3182C58.8135 68.3187 58.0015 69.1307 57.001 69.1307C56.0005 69.1307 55.1885 68.3187 55.1885 67.3182Z" fill="#263238"/>
<path d="M39.5894 77.3433H74.5876C77.3595 77.1983 79.491 74.8372 79.3484 72.0653C79.317 71.5046 79.1962 70.9512 78.9835 70.434L61.3974 39.6553C60.0538 37.2266 56.9967 36.3469 54.5679 37.693C53.7414 38.1473 53.0599 38.8288 52.6032 39.6553L35.0171 70.434C33.9731 73.0053 35.2104 75.9343 37.7793 76.9808C38.3013 77.191 38.8523 77.3118 39.413 77.3433" stroke="#263238" stroke-width="3" stroke-linecap="round" stroke-linejoin="round"/>
<path d="M56.9749 60.3739V52.8822" stroke="#263238" stroke-width="3" stroke-linecap="round" stroke-linejoin="round"/>
</svg>
