<svg width="342" height="167" viewBox="0 0 342 167" fill="none" xmlns="http://www.w3.org/2000/svg">
<g clip-path="url(#clip0_554_8183)">
<rect width="342" height="167" fill="#30A881"/>
<g clip-path="url(#clip1_554_8183)">
<path d="M52.7461 68.931L59.391 79.3523C62.0513 83.5252 60.8169 89.0612 56.6404 91.7164H56.6367C56.5144 91.7942 56.3932 91.8663 56.2703 91.9358C56.2502 91.9494 56.229 91.9613 56.2069 91.9714C56.1372 92.0111 56.0706 92.0487 56.0004 92.0832C55.8683 92.1538 55.7326 92.2171 55.6 92.2789C53.6942 93.1653 51.5367 93.3541 49.5055 92.8124C47.4742 92.2706 45.6986 91.0328 44.4896 89.3157C44.4091 89.2039 44.3301 89.087 44.2543 88.9679L37.6099 78.5466C37.4592 78.3111 37.3566 78.0482 37.3079 77.7731C37.2592 77.4979 37.2653 77.2159 37.3259 76.9431C37.3866 76.6704 37.5005 76.4122 37.6613 76.1835C37.822 75.9547 38.0264 75.7599 38.2627 75.6101L49.8004 68.2793C50.0879 68.0959 50.4154 67.9843 50.7552 67.954C51.0951 67.9237 51.4372 67.9755 51.7527 68.1051C51.8023 68.1245 51.8508 68.1463 51.8982 68.1706C51.9385 68.1901 51.9803 68.2133 52.0221 68.2365C52.1366 68.3023 52.2446 68.3789 52.3446 68.4652C52.3861 68.4994 52.4249 68.5366 52.4607 68.5765C52.5694 68.6831 52.6652 68.8021 52.7461 68.931V68.931Z" fill="#B4B4B4"/>
<g opacity="0.3">
<path opacity="0.3" d="M57.6363 90.9749C57.322 91.2436 56.9892 91.49 56.6403 91.7121H56.6367C52.4606 94.3657 46.9165 93.1365 44.2562 88.9637L37.6119 78.5423C37.4612 78.3069 37.3586 78.044 37.3098 77.7689C37.2611 77.4937 37.2672 77.2117 37.3279 76.9389C37.3885 76.6661 37.5025 76.408 37.6632 76.1792C37.824 75.9505 38.0284 75.7556 38.2647 75.6059L40.3578 74.2762C40.1216 74.4261 39.9173 74.6209 39.7566 74.8496C39.5958 75.0784 39.4819 75.3365 39.4212 75.6092C39.3605 75.882 39.3543 76.164 39.4029 76.4391C39.4515 76.7143 39.554 76.9771 39.7045 77.2127L46.3494 87.634C47.5105 89.4564 49.2924 90.7984 51.3667 91.4123C53.441 92.0263 55.6677 91.8709 57.6363 90.9749Z" fill="#4F114D"/>
</g>
<g opacity="0.55">
<path opacity="0.55" d="M52.746 68.9309L59.3908 79.3523C62.0512 83.5251 60.8167 89.0611 56.6402 91.7163H56.6366C56.5143 91.7941 56.393 91.8662 56.2702 91.9358C56.2501 91.9493 56.2288 91.9612 56.2067 91.9713C56.1371 92.011 56.0705 92.0486 56.0003 92.0831C55.8682 92.1537 55.7325 92.2171 55.5998 92.2789C57.2673 90.8842 58.3696 88.9316 58.7012 86.7854C59.0327 84.6392 58.5709 82.4458 57.4019 80.6144L55.4362 77.5316L50.1543 92.9563C48.774 92.6991 47.4743 92.1196 46.3612 91.265L52.5917 73.0698L50.9403 70.479L44.4895 89.3156C44.409 89.2038 44.33 89.0869 44.2542 88.9679L42.3359 85.9593L47.9905 69.444L47.9972 69.426L49.8003 68.2802C50.0878 68.0968 50.4153 67.9853 50.7551 67.9549C51.0949 67.9246 51.4371 67.9765 51.7526 68.1061C51.8021 68.1255 51.8507 68.1473 51.8981 68.1715C51.9384 68.1911 51.9802 68.2143 52.022 68.2375C52.1365 68.3033 52.2445 68.3799 52.3445 68.4662C52.3859 68.5003 52.4248 68.5375 52.4606 68.5775C52.5692 68.6838 52.665 68.8024 52.746 68.9309V68.9309Z" fill="white"/>
</g>
<g opacity="0.55">
<path opacity="0.55" d="M47.9994 69.424L47.9927 69.442C47.933 69.4707 47.8751 69.503 47.8193 69.5388L47.9994 69.424Z" fill="white"/>
</g>
<path d="M51.8382 94.2895C50.1284 94.2925 48.4454 93.8644 46.9456 93.0449C45.4457 92.2253 44.1775 91.0409 43.2586 89.6015L36.6148 79.1812C36.3812 78.8149 36.2222 78.4063 36.1468 77.9787C36.0714 77.5511 36.0812 77.1128 36.1755 76.689C36.2698 76.2651 36.4468 75.864 36.6964 75.5084C36.9461 75.1529 37.2634 74.8499 37.6304 74.6168L49.1691 67.2824C49.9103 66.8125 50.808 66.6553 51.6652 66.8453C52.5223 67.0353 53.269 67.5569 53.7415 68.2957L60.3853 78.7191C63.3903 83.4329 61.9939 89.7081 57.2724 92.7084C55.6491 93.742 53.7636 94.2906 51.8382 94.2895V94.2895ZM50.9459 69.1241C50.7656 69.124 50.589 69.1755 50.4371 69.2725L38.8994 76.6038C38.7941 76.6707 38.703 76.7577 38.6313 76.8597C38.5597 76.9618 38.5089 77.0769 38.4818 77.1986C38.4547 77.3202 38.4519 77.446 38.4735 77.5687C38.4952 77.6915 38.5408 77.8087 38.6078 77.9139L45.2516 88.3341C47.5579 91.9511 52.3816 93.0222 56.0054 90.7189C59.6287 88.4166 60.7016 83.6008 58.3943 79.9838L51.7494 69.563C51.6634 69.4282 51.5447 69.3172 51.4042 69.2404C51.2637 69.1637 51.1061 69.1237 50.9459 69.1241V69.1241Z" fill="#4F114D"/>
<path d="M32.3087 46.8096L41.2367 60.8149C41.6727 61.5 41.8182 62.3299 41.6413 63.1221C41.4644 63.9144 40.9795 64.604 40.2933 65.0393L39.3499 65.639C39.0105 65.8551 38.6316 66.0023 38.2351 66.0721C37.8385 66.1419 37.4321 66.1329 37.0391 66.0457C36.646 65.9585 36.274 65.7948 35.9444 65.564C35.6148 65.3331 35.334 65.0396 35.1182 64.7003L26.1902 50.695C25.9739 50.356 25.8265 49.9779 25.7566 49.5821C25.6866 49.1863 25.6955 48.7807 25.7826 48.3883C25.8697 47.9959 26.0334 47.6245 26.2643 47.2953C26.4953 46.9661 26.7889 46.6855 27.1284 46.4696L28.0718 45.8699C28.7585 45.4337 29.5906 45.2876 30.3852 45.4638C31.1798 45.64 31.8717 46.1241 32.3087 46.8096V46.8096Z" fill="#FF8A30"/>
<path d="M40.4398 59.5615L41.2392 60.8149C41.6752 61.5 41.8208 62.3299 41.6439 63.1222C41.4669 63.9144 40.982 64.604 40.2958 65.0393L39.3524 65.639C39.013 65.8551 38.6341 66.0023 38.2376 66.0721C37.8411 66.1419 37.4346 66.1329 37.0416 66.0457C36.6485 65.9586 36.2765 65.7949 35.9469 65.564C35.6173 65.3331 35.3365 65.0397 35.1207 64.7003L34.3213 63.4469L40.4398 59.5615Z" fill="#3AB4FF"/>
<g opacity="0.3">
<path opacity="0.3" d="M40.8562 64.5859C40.6876 64.7587 40.4995 64.9116 40.2958 65.0413L39.3524 65.641C39.0129 65.8571 38.6341 66.0043 38.2376 66.0741C37.841 66.1439 37.4346 66.1349 37.0416 66.0478C36.6485 65.9606 36.2765 65.7969 35.9469 65.566C35.6173 65.3352 35.3365 65.0417 35.1207 64.7024L26.1927 50.697C25.976 50.3581 25.8282 49.9799 25.7579 49.584C25.6877 49.1881 25.6963 48.7822 25.7832 48.3896C25.8701 47.997 26.0337 47.6254 26.2646 47.2959C26.4955 46.9664 26.7892 46.6856 27.1289 46.4695L28.0722 45.8699C28.2765 45.7409 28.4948 45.6356 28.723 45.5562C28.246 46.0519 27.9496 46.6931 27.8811 47.377C27.8126 48.0609 27.976 48.748 28.3452 49.3282L37.2732 63.3336C37.6432 63.9132 38.1977 64.3517 38.8476 64.5789C39.4974 64.806 40.2048 64.8085 40.8562 64.5859V64.5859Z" fill="#4F114D"/>
</g>
<g opacity="0.55">
<path opacity="0.55" d="M32.3092 46.8096L41.2372 60.8149C41.6732 61.5 41.8187 62.3299 41.6418 63.1222C41.4649 63.9144 40.98 64.604 40.2938 65.0393L39.3504 65.639C39.2056 65.7304 39.0538 65.8102 38.8963 65.8775C39.433 65.392 39.7804 64.7327 39.877 64.0162C39.9736 63.2996 39.8132 62.5721 39.4242 61.9622L30.4962 47.9636C30.1078 47.3535 29.5159 46.9 28.8251 46.6832C28.1343 46.4664 27.389 46.5002 26.7207 46.7787C26.8482 46.6646 26.9849 46.5612 27.1294 46.4696L28.0728 45.8699C28.7594 45.4338 29.5915 45.2878 30.3859 45.4641C31.1804 45.6403 31.8722 46.1243 32.3092 46.8096Z" fill="white"/>
</g>
<path d="M37.7126 67.2988C36.9969 67.3 36.2925 67.1208 35.6648 66.7776C35.037 66.4345 34.5063 65.9386 34.1218 65.336L25.1924 51.3291C24.5876 50.3803 24.3851 49.2307 24.6294 48.1329C24.8737 47.0352 25.5447 46.0792 26.4949 45.4752L27.4383 44.8761C28.3889 44.2734 29.5403 44.0718 30.6397 44.3156C31.7391 44.5594 32.6967 45.2286 33.3023 46.1764L42.2334 60.1833C42.8381 61.132 43.0406 62.2817 42.7963 63.3794C42.552 64.4772 41.881 65.4332 40.9308 66.0371V66.0371L39.9869 66.6368C39.3076 67.0694 38.5185 67.2991 37.7126 67.2988V67.2988ZM29.7162 46.5726C29.3584 46.5723 29.008 46.6742 28.7062 46.8662L27.7629 47.4638C27.5539 47.5966 27.3732 47.7691 27.231 47.9716C27.0888 48.1741 26.988 48.4026 26.9344 48.644C26.8807 48.8854 26.8752 49.135 26.9182 49.3786C26.9612 49.6221 27.0518 49.8548 27.1849 50.0633L36.1128 64.0702C36.3818 64.4911 36.807 64.7883 37.2952 64.8966C37.7833 65.005 38.2946 64.9157 38.7169 64.6482L39.6608 64.0486C40.0827 63.7804 40.3807 63.3559 40.4892 62.8684C40.5976 62.3809 40.5078 61.8704 40.2393 61.4491L31.3103 47.4422C31.1395 47.1749 30.9038 46.9551 30.6251 46.803C30.3464 46.651 30.0338 46.5717 29.7162 46.5726V46.5726Z" fill="#4F114D"/>
<path d="M34.321 64.4411C34.106 64.4413 33.8968 64.3718 33.7247 64.2432C33.5527 64.1145 33.4271 63.9336 33.3669 63.7275C33.3067 63.5215 33.3151 63.3016 33.3908 63.1008C33.4665 62.8999 33.6055 62.729 33.7868 62.6138L39.9053 58.7263C40.0153 58.6545 40.1385 58.6052 40.2677 58.5813C40.3969 58.5574 40.5296 58.5593 40.658 58.587C40.7865 58.6146 40.9082 58.6675 41.016 58.7424C41.1239 58.8174 41.2157 58.913 41.2863 59.0237C41.3569 59.1343 41.4047 59.2579 41.4271 59.3872C41.4495 59.5165 41.4459 59.6489 41.4166 59.7768C41.3873 59.9047 41.3329 60.0255 41.2565 60.1322C41.1801 60.2389 41.0832 60.3295 40.9715 60.3985L34.8535 64.286C34.6945 64.3874 34.5097 64.4412 34.321 64.4411V64.4411Z" fill="#4F114D"/>
<path d="M46.3389 76.7356C46.14 76.7358 45.9443 76.6859 45.7699 76.5904C45.5955 76.4949 45.4481 76.3571 45.3414 76.1895L38.8292 65.9753C38.661 65.7115 38.6047 65.3919 38.6727 65.0867C38.7406 64.7815 38.9272 64.5157 39.1914 64.3479C39.4557 64.18 39.7759 64.1238 40.0816 64.1916C40.3873 64.2595 40.6535 64.4458 40.8217 64.7095L47.3339 74.9243C47.4474 75.1024 47.5109 75.3076 47.5178 75.5186C47.5246 75.7296 47.4746 75.9385 47.3729 76.1236C47.2713 76.3087 47.1217 76.4632 46.9398 76.5708C46.7579 76.6785 46.5504 76.7354 46.3389 76.7356V76.7356Z" fill="#4F114D"/>
<path d="M158.507 139.067C155.561 139.663 152.614 139.821 149.668 139.884C146.722 139.967 143.776 139.923 140.83 139.878C137.883 139.833 134.937 139.841 131.99 139.84H34.7635H30.3439C28.8711 139.84 27.3977 139.891 25.9248 139.916C24.452 139.942 22.9786 139.903 21.5053 139.806C20.0324 139.691 18.559 139.5 17.0862 139.066C17.0026 139.041 16.9293 138.99 16.8772 138.921C16.8251 138.851 16.7969 138.766 16.7969 138.679C16.7969 138.592 16.8251 138.508 16.8772 138.438C16.9293 138.369 17.0026 138.318 17.0862 138.293C18.559 137.859 20.0324 137.668 21.5053 137.553C22.9784 137.456 24.4516 137.419 25.9248 137.442C27.3977 137.467 28.8711 137.52 30.3439 137.519H34.7635H131.99C134.937 137.519 137.883 137.529 140.83 137.481C143.776 137.432 146.722 137.391 149.668 137.474C152.614 137.538 155.561 137.696 158.507 138.292C158.596 138.31 158.677 138.358 158.735 138.429C158.792 138.499 158.824 138.587 158.824 138.678C158.824 138.769 158.792 138.858 158.735 138.928C158.677 138.998 158.596 139.047 158.507 139.065V139.067Z" fill="#4F114D"/>
<path d="M160.517 114.643L138.509 136.046C138.114 136.436 137.637 136.733 137.113 136.918C136.589 137.102 136.031 137.169 135.478 137.113C134.926 137.057 134.392 136.88 133.916 136.594C133.44 136.308 133.033 135.921 132.724 135.46L129.755 131.025L157.539 110.196L160.517 114.643Z" fill="#3AB4FF"/>
<g opacity="0.3">
<path opacity="0.3" d="M160.517 114.642L138.511 136.047C138.115 136.436 137.638 136.734 137.114 136.918C136.59 137.102 136.032 137.168 135.479 137.112C134.926 137.056 134.392 136.879 133.916 136.593C133.44 136.308 133.032 135.92 132.723 135.459L129.754 131.029L135.121 127.008L135.236 127.217C135.506 127.701 135.88 128.121 136.331 128.444C136.782 128.768 137.299 128.989 137.845 129.09C138.391 129.191 138.953 129.171 139.49 129.03C140.028 128.889 140.527 128.632 140.954 128.276L159.447 113.046L160.517 114.642Z" fill="#4F114D"/>
</g>
<path d="M166.29 113.248L160.517 114.643L157.539 110.195L161.037 105.404C161.227 105.144 161.477 104.934 161.765 104.791C162.054 104.649 162.373 104.578 162.695 104.584C163.017 104.591 163.332 104.675 163.615 104.829C163.897 104.984 164.138 105.204 164.317 105.471L167.482 110.198C167.661 110.465 167.772 110.771 167.807 111.091C167.842 111.41 167.799 111.734 167.682 112.033C167.565 112.332 167.378 112.599 167.135 112.811C166.893 113.022 166.603 113.172 166.29 113.248V113.248Z" fill="#3AB4FF"/>
<g opacity="0.3">
<path opacity="0.3" d="M166.289 113.249L160.517 114.64L158.298 111.33L159.526 112.629L164.986 110.295C165.376 110.129 165.702 109.843 165.919 109.479C166.135 109.116 166.23 108.693 166.19 108.272L167.48 110.195C167.66 110.462 167.772 110.769 167.808 111.089C167.843 111.409 167.8 111.732 167.683 112.032C167.566 112.332 167.379 112.599 167.136 112.811C166.893 113.023 166.603 113.173 166.289 113.249V113.249Z" fill="#4F114D"/>
</g>
<g opacity="0.55">
<path opacity="0.55" d="M165.106 106.59C164.689 106.411 164.224 106.38 163.787 106.5C163.349 106.619 162.965 106.884 162.698 107.25L159.201 112.043L161.042 114.795L160.711 114.874L157.732 110.429L161.233 105.636C161.423 105.376 161.672 105.166 161.961 105.023C162.249 104.881 162.568 104.81 162.89 104.816C163.212 104.823 163.527 104.907 163.81 105.061C164.092 105.215 164.333 105.435 164.512 105.703L165.106 106.59Z" fill="white"/>
</g>
<path d="M135.865 138.311C135.696 138.311 135.527 138.302 135.359 138.285C134.633 138.213 133.932 137.981 133.307 137.605C132.681 137.23 132.147 136.721 131.742 136.114L128.773 131.678C128.606 131.428 128.54 131.123 128.591 130.826C128.642 130.529 128.804 130.262 129.046 130.081L156.83 109.252C156.958 109.155 157.105 109.086 157.261 109.049C157.417 109.011 157.579 109.005 157.737 109.032C157.895 109.059 158.046 109.118 158.181 109.205C158.315 109.292 158.431 109.406 158.52 109.539L161.498 113.986C161.652 114.215 161.72 114.49 161.692 114.764C161.664 115.038 161.54 115.293 161.343 115.486L139.336 136.888C138.412 137.801 137.164 138.313 135.865 138.311V138.311ZM131.357 131.298L133.705 134.804C133.917 135.121 134.197 135.387 134.524 135.583C134.851 135.78 135.218 135.901 135.597 135.94C135.977 135.978 136.36 135.933 136.72 135.806C137.08 135.679 137.408 135.475 137.679 135.207L158.988 114.483L157.248 111.886L131.357 131.298Z" fill="#4F114D"/>
<path d="M160.517 115.822C160.323 115.821 160.132 115.773 159.961 115.682C159.79 115.591 159.644 115.459 159.536 115.298L156.558 110.851C156.424 110.65 156.355 110.413 156.36 110.171C156.365 109.93 156.443 109.696 156.586 109.501L160.085 104.71C160.386 104.296 160.783 103.962 161.242 103.735C161.7 103.507 162.207 103.394 162.719 103.404C163.231 103.414 163.733 103.547 164.182 103.793C164.632 104.038 165.015 104.388 165.3 104.813L168.465 109.54C168.749 109.965 168.927 110.452 168.982 110.96C169.038 111.469 168.969 111.983 168.783 112.459C168.597 112.935 168.299 113.359 167.913 113.696C167.527 114.032 167.066 114.271 166.569 114.391V114.391L160.794 115.789C160.703 115.81 160.61 115.821 160.517 115.822V115.822ZM158.978 110.225L161.043 113.304L166.012 112.102C166.14 112.071 166.259 112.009 166.358 111.923C166.458 111.836 166.535 111.727 166.583 111.604C166.631 111.481 166.648 111.349 166.634 111.218C166.62 111.087 166.574 110.961 166.5 110.852L163.335 106.126C163.262 106.017 163.163 105.927 163.048 105.864C162.932 105.801 162.803 105.767 162.672 105.764C162.54 105.762 162.41 105.791 162.292 105.849C162.174 105.907 162.072 105.993 161.994 106.099L158.978 110.225Z" fill="#4F114D"/>
<path d="M114.209 106.794H136.656C137.541 106.794 138.389 107.145 139.015 107.769C139.64 108.394 139.992 109.241 139.992 110.124V131.312C139.992 133.266 139.215 135.14 137.831 136.521C136.447 137.903 134.569 138.679 132.612 138.679H118.254C116.297 138.679 114.419 137.903 113.035 136.521C111.652 135.14 110.874 133.266 110.874 131.312V110.124C110.874 109.241 111.226 108.394 111.851 107.769C112.477 107.145 113.326 106.794 114.21 106.794H114.209Z" fill="#3AB4FF"/>
<g opacity="0.3">
<path opacity="0.3" d="M124.454 138.681H118.894C116.936 138.681 115.059 137.905 113.674 136.524C112.29 135.142 111.512 133.268 111.511 131.314V110.124C111.511 109.241 111.863 108.394 112.489 107.77C113.114 107.145 113.962 106.794 114.847 106.793H120.41C119.972 106.793 119.538 106.879 119.133 107.047C118.729 107.214 118.361 107.46 118.051 107.769C117.741 108.078 117.495 108.445 117.328 108.85C117.16 109.254 117.074 109.687 117.074 110.124V131.314C117.074 132.281 117.265 133.239 117.636 134.133C118.006 135.027 118.55 135.839 119.235 136.523C119.921 137.207 120.734 137.75 121.63 138.12C122.525 138.491 123.485 138.681 124.454 138.681V138.681Z" fill="#4F114D"/>
</g>
<g opacity="0.55">
<path opacity="0.55" d="M139.358 110.124V131.314C139.358 133.268 138.58 135.141 137.196 136.523C135.812 137.905 133.935 138.681 131.978 138.681H129.755C131.712 138.681 133.589 137.905 134.973 136.523C136.357 135.141 137.135 133.268 137.135 131.314V110.124C137.135 109.241 136.783 108.394 136.157 107.769C135.532 107.144 134.683 106.793 133.798 106.793H136.023C136.908 106.794 137.756 107.145 138.381 107.769C139.007 108.394 139.358 109.241 139.358 110.124Z" fill="white"/>
</g>
<path d="M132.611 139.859H118.254C113.533 139.859 109.692 136.025 109.692 131.313V110.125C109.694 108.929 110.17 107.783 111.017 106.938C111.864 106.092 113.012 105.617 114.21 105.615H136.656C137.853 105.617 139.002 106.092 139.848 106.938C140.695 107.783 141.172 108.929 141.173 110.125V131.313C141.173 136.025 137.332 139.859 132.611 139.859ZM114.21 107.97C113.638 107.971 113.09 108.198 112.686 108.601C112.281 109.005 112.054 109.552 112.053 110.123V131.313C112.056 132.953 112.71 134.526 113.872 135.686C115.035 136.846 116.61 137.498 118.254 137.5H132.611C134.255 137.498 135.83 136.845 136.992 135.685C138.154 134.525 138.808 132.953 138.81 131.313V110.125C138.81 109.554 138.582 109.007 138.178 108.604C137.774 108.2 137.226 107.973 136.654 107.972L114.21 107.97Z" fill="#4F114D"/>
<path d="M125.802 91.0537H125.063C123.341 91.0537 121.944 92.4475 121.944 94.1669V110.333C121.944 112.052 123.341 113.446 125.063 113.446H125.802C127.525 113.446 128.921 112.052 128.921 110.333V94.1669C128.921 92.4475 127.525 91.0537 125.802 91.0537Z" fill="#3AB4FF"/>
<g opacity="0.3">
<path opacity="0.3" d="M128.92 106.5V110.333C128.92 110.742 128.84 111.147 128.683 111.524C128.526 111.902 128.297 112.245 128.007 112.534C127.717 112.823 127.373 113.053 126.995 113.209C126.617 113.365 126.211 113.446 125.801 113.446H125.065C124.655 113.446 124.249 113.365 123.871 113.209C123.492 113.053 123.148 112.824 122.858 112.534C122.568 112.245 122.338 111.902 122.181 111.525C122.024 111.147 121.944 110.742 121.943 110.333V106.5C121.944 106.908 122.024 107.313 122.181 107.691C122.338 108.069 122.568 108.412 122.858 108.701C123.148 108.99 123.492 109.219 123.871 109.376C124.249 109.532 124.655 109.612 125.065 109.612H125.801C126.211 109.612 126.617 109.532 126.995 109.376C127.373 109.219 127.717 108.99 128.007 108.701C128.297 108.412 128.526 108.069 128.683 107.691C128.84 107.313 128.92 106.908 128.92 106.5V106.5Z" fill="#4F114D"/>
</g>
<g opacity="0.55">
<path opacity="0.55" d="M128.92 94.8202V97.1667C128.92 96.7579 128.84 96.3531 128.683 95.9754C128.526 95.5977 128.296 95.2545 128.007 94.9654C127.717 94.6764 127.373 94.4471 126.995 94.2908C126.617 94.1344 126.211 94.054 125.801 94.0541H125.065C124.237 94.0538 123.444 94.3816 122.858 94.9653C122.273 95.549 121.944 96.3409 121.943 97.1667V94.8202C121.944 93.9943 122.273 93.2024 122.858 92.6187C123.444 92.035 124.237 91.7072 125.065 91.7075H125.801C126.211 91.7074 126.617 91.7878 126.995 91.9442C127.373 92.1005 127.717 92.3298 128.007 92.6188C128.296 92.9079 128.526 93.2511 128.683 93.6288C128.84 94.0065 128.92 94.4113 128.92 94.8202V94.8202Z" fill="white"/>
</g>
<path d="M125.803 114.626H125.063C123.923 114.625 122.831 114.172 122.025 113.368C121.219 112.563 120.765 111.473 120.764 110.335V94.169C120.765 93.0311 121.218 91.9401 122.024 91.1355C122.83 90.3308 123.923 89.8781 125.063 89.8766H125.803C126.942 89.8781 128.035 90.3308 128.841 91.1355C129.647 91.9402 130.1 93.0311 130.101 94.169V110.335C130.1 111.473 129.647 112.563 128.841 113.368C128.035 114.172 126.942 114.625 125.803 114.626ZM125.063 92.234C124.549 92.2347 124.057 92.4388 123.693 92.8015C123.33 93.1643 123.126 93.656 123.125 94.169V110.335C123.126 110.848 123.33 111.339 123.694 111.702C124.057 112.065 124.549 112.269 125.063 112.269H125.803C126.316 112.269 126.809 112.065 127.172 111.702C127.535 111.339 127.74 110.848 127.74 110.335V94.169C127.74 93.656 127.535 93.1643 127.172 92.8015C126.809 92.4388 126.316 92.2347 125.803 92.234H125.063Z" fill="#4F114D"/>
<path d="M125.433 111.007C125.062 111.007 124.707 110.86 124.445 110.599C124.183 110.337 124.036 109.983 124.036 109.613V109.613C124.036 109.243 124.183 108.889 124.445 108.627C124.707 108.366 125.062 108.219 125.433 108.219C125.616 108.219 125.798 108.255 125.967 108.325C126.137 108.395 126.291 108.498 126.42 108.627C126.55 108.757 126.653 108.91 126.723 109.08C126.793 109.249 126.83 109.43 126.83 109.613V109.613C126.829 109.983 126.682 110.338 126.42 110.599C126.158 110.86 125.803 111.007 125.433 111.007V111.007Z" fill="#4F114D"/>
<g opacity="0.3">
<path opacity="0.3" d="M131.277 131.041H133.278C134.226 131.041 134.995 130.273 134.995 129.326V120.848C134.995 119.901 134.226 119.133 133.278 119.133H131.277C130.328 119.133 129.559 119.901 129.559 120.848V129.326C129.559 130.273 130.328 131.041 131.277 131.041Z" fill="white"/>
</g>
<path d="M74.0434 115.83V133.542C74.0437 134.209 73.9123 134.87 73.6567 135.487C73.4011 136.103 73.0263 136.664 72.5537 137.136C72.0811 137.608 71.5201 137.982 70.9025 138.238C70.2849 138.493 69.623 138.625 68.9545 138.625H60.1298C58.7793 138.624 57.4843 138.088 56.5291 137.135C55.574 136.182 55.0367 134.89 55.0352 133.542V115.83C55.0361 109.689 56.7417 103.669 59.9626 98.4371L61.2011 96.4238L62.5537 94.2276C62.762 93.8882 63.0541 93.6079 63.4019 93.4134C63.7498 93.2189 64.1419 93.1167 64.5406 93.1167C64.9393 93.1167 65.3314 93.2189 65.6792 93.4134C66.0271 93.6079 66.3191 93.8882 66.5274 94.2276L69.1217 98.4371C72.3435 103.668 74.0474 109.69 74.0434 115.83V115.83Z" fill="#FF8A30"/>
<path d="M64.5387 93.1144C64.1396 93.1128 63.7468 93.2143 63.3986 93.409C63.0503 93.6037 62.7585 93.885 62.5513 94.2256L59.9617 98.4371C56.7399 103.668 55.0344 109.689 55.0348 115.83V133.54C55.0356 134.888 55.5724 136.18 56.5273 137.133C57.4822 138.087 58.777 138.622 60.1274 138.623H38.1043C36.7539 138.622 35.4591 138.087 34.5042 137.133C33.5493 136.18 33.0125 134.888 33.0117 133.54V115.83C33.0137 112.809 33.4267 109.802 34.2394 106.892L34.2436 106.888C35.0755 103.914 36.3192 101.071 37.9386 98.4397L40.5282 94.2282C40.7353 93.8875 41.0271 93.6061 41.3754 93.4113C41.7236 93.2165 42.1164 93.1149 42.5156 93.1165L64.5387 93.1144Z" fill="#FF8A30"/>
<path d="M43.2626 88.7288H62.3292C62.9155 88.7288 63.4779 88.9613 63.8925 89.3752C64.3071 89.7891 64.54 90.3504 64.54 90.9357V93.1139H41.0518V90.9357C41.0518 90.3504 41.2847 89.7891 41.6993 89.3752C42.1139 88.9613 42.6762 88.7288 43.2626 88.7288Z" fill="#FF8A30"/>
<g opacity="0.3">
<path opacity="0.3" d="M47.5445 88.7303C47.2541 88.7303 46.9665 88.7873 46.6982 88.8982C46.4298 89.0092 46.186 89.1717 45.9807 89.3767C45.7753 89.5817 45.6124 89.8251 45.5013 90.093C45.3902 90.3608 45.3331 90.6479 45.3332 90.9378V93.1144H41.0498V90.9378C41.0497 90.6479 41.1069 90.3608 41.218 90.093C41.3291 89.8251 41.492 89.5817 41.6973 89.3767C41.9027 89.1717 42.1465 89.0092 42.4148 88.8982C42.6831 88.7873 42.9707 88.7303 43.2611 88.7303H47.5445Z" fill="#4F114D"/>
</g>
<g opacity="0.55">
<path opacity="0.55" d="M64.5383 90.9378V93.1144H62.1262V90.9378C62.1266 90.6481 62.0698 90.3611 61.959 90.0933C61.8482 89.8255 61.6856 89.5821 61.4805 89.3771C61.2754 89.1721 61.0319 89.0094 60.7637 88.8984C60.4956 88.7875 60.2082 88.7303 59.918 88.7303H62.329C62.9152 88.7308 63.4772 88.9635 63.8915 89.3775C64.3058 89.7914 64.5384 90.3527 64.5383 90.9378V90.9378Z" fill="white"/>
</g>
<path d="M68.9541 139.802H60.1268C58.4637 139.801 56.8691 139.14 55.6931 137.966C54.517 136.792 53.8554 135.201 53.8535 133.54V115.83C53.8522 109.471 55.6185 103.237 58.9558 97.8204L61.5444 93.6099C61.8582 93.0978 62.2985 92.6748 62.8232 92.3814C63.3478 92.088 63.9392 91.9342 64.5406 91.9346C65.1419 91.935 65.7331 92.0896 66.2573 92.3837C66.7816 92.6778 67.2213 93.1015 67.5344 93.614L70.125 97.8204C72.6226 101.869 74.2478 106.393 74.8971 111.103C75.1135 112.669 75.2225 114.249 75.2232 115.83V133.54C75.2232 136.993 72.4107 139.802 68.9541 139.802ZM64.5381 94.293C64.3409 94.2918 64.1468 94.3418 63.9749 94.4382C63.803 94.5346 63.6591 94.674 63.5576 94.8427L60.968 99.0542C57.8595 104.1 56.2142 109.907 56.215 115.83V133.54C56.2164 134.576 56.629 135.568 57.3624 136.3C58.0959 137.032 59.0902 137.444 60.1273 137.445H68.9546C69.9912 137.444 70.9848 137.032 71.7174 136.3C72.45 135.568 72.8619 134.575 72.8628 133.54V115.83C72.8619 114.357 72.7604 112.885 72.5588 111.426C71.954 107.039 70.4401 102.825 68.1134 99.0542L65.5197 94.8438C65.4186 94.6743 65.2747 94.5343 65.1025 94.4377C64.9303 94.3411 64.7357 94.2912 64.5381 94.293Z" fill="#4F114D"/>
<path d="M55.3518 112.166C55.1713 112.166 54.9949 112.112 54.8454 112.011C54.6958 111.91 54.5801 111.767 54.513 111.599C54.4459 111.432 54.4305 111.249 54.4689 111.073C54.5073 110.896 54.5977 110.736 54.7284 110.612L63.9144 101.864C64.0824 101.704 64.3056 101.614 64.5378 101.614C64.77 101.614 64.9932 101.704 65.1612 101.864L74.3472 110.612C74.5205 110.777 74.6211 111.004 74.6268 111.243C74.6324 111.482 74.5427 111.713 74.3774 111.886C74.2955 111.972 74.1975 112.041 74.0891 112.089C73.9806 112.137 73.8637 112.163 73.7451 112.165C73.5056 112.171 73.2737 112.082 73.1004 111.916L64.5337 103.762L55.9669 111.916C55.8011 112.075 55.5812 112.164 55.3518 112.166V112.166Z" fill="#4F114D"/>
<path d="M64.5387 139.802H60.1273C59.9702 139.806 59.814 139.778 59.6679 139.72C59.5218 139.662 59.3888 139.576 59.2765 139.466C59.1642 139.356 59.075 139.225 59.0141 139.081C58.9532 138.936 58.9219 138.781 58.9219 138.624C58.9219 138.467 58.9532 138.312 59.0141 138.167C59.075 138.023 59.1642 137.892 59.2765 137.782C59.3888 137.672 59.5218 137.586 59.6679 137.528C59.814 137.47 59.9702 137.442 60.1273 137.446H64.5387C64.6958 137.442 64.8519 137.47 64.998 137.528C65.1441 137.586 65.2772 137.672 65.3895 137.782C65.5018 137.892 65.5909 138.023 65.6518 138.167C65.7127 138.312 65.7441 138.467 65.7441 138.624C65.7441 138.781 65.7127 138.936 65.6518 139.081C65.5909 139.225 65.5018 139.356 65.3895 139.466C65.2772 139.576 65.1441 139.662 64.998 139.72C64.8519 139.778 64.6958 139.806 64.5387 139.802V139.802Z" fill="#4F114D"/>
<path d="M60.1275 139.803H38.1039C36.4407 139.801 34.846 139.141 33.6698 137.967C32.4936 136.793 31.832 135.201 31.8301 133.541V115.83C31.8307 109.472 33.5967 103.238 36.9319 97.821L39.5215 93.61C39.8337 93.0971 40.2733 92.6735 40.7977 92.3802C41.3221 92.0868 41.9136 91.9337 42.5147 91.9357H64.5378C64.851 91.9357 65.1513 92.0599 65.3728 92.2809C65.5942 92.502 65.7186 92.8018 65.7186 93.1144C65.7186 93.427 65.5942 93.7268 65.3728 93.9479C65.1513 94.1689 64.851 94.2931 64.5378 94.2931C64.3407 94.2918 64.1465 94.3419 63.9746 94.4382C63.8027 94.5346 63.6589 94.674 63.5573 94.8428L60.9677 99.0543C57.8592 104.1 56.2139 109.907 56.2147 115.83V133.541C56.2161 134.576 56.6287 135.569 57.3621 136.301C58.0956 137.033 59.0899 137.444 60.127 137.446C60.4358 137.452 60.7298 137.579 60.9459 137.799C61.1621 138.02 61.2831 138.316 61.2831 138.624C61.2831 138.932 61.1621 139.228 60.9459 139.449C60.7298 139.669 60.4358 139.796 60.127 139.803H60.1275ZM42.5157 94.2931C42.3186 94.2918 42.1244 94.3419 41.9525 94.4382C41.7806 94.5346 41.6368 94.674 41.5352 94.8428L38.9456 99.0543C35.8386 104.1 34.1933 109.907 34.1926 115.83V133.541C34.1939 134.576 34.6064 135.568 35.3397 136.301C36.0731 137.033 37.0673 137.444 38.1044 137.446H55.227C54.3375 136.338 53.8534 134.96 53.8548 133.541V115.83C53.8534 109.471 55.6198 103.237 58.9571 97.8204L61.1246 94.2931H42.5157Z" fill="#4F114D"/>
<path d="M64.5389 103.417C64.2993 103.417 64.0696 103.322 63.9003 103.153C63.7309 102.984 63.6357 102.755 63.6357 102.516V93.1144C63.6357 92.8753 63.7309 92.646 63.9003 92.477C64.0696 92.3079 64.2993 92.2129 64.5389 92.2129C64.7784 92.2129 65.0081 92.3079 65.1774 92.477C65.3468 92.646 65.442 92.8753 65.442 93.1144V102.516C65.442 102.755 65.3468 102.984 65.1774 103.153C65.0081 103.322 64.7784 103.417 64.5389 103.417V103.417Z" fill="#4F114D"/>
<path d="M64.5385 94.2931H41.0513C40.8963 94.2931 40.7428 94.2626 40.5996 94.2033C40.4563 94.1441 40.3262 94.0573 40.2166 93.9478C40.107 93.8383 40.0201 93.7084 39.9608 93.5654C39.9015 93.4224 39.871 93.2691 39.8711 93.1144V90.9362C39.8721 90.0386 40.2297 89.178 40.8655 88.5432C41.5014 87.9085 42.3635 87.5515 43.2627 87.5505H62.3293C63.2285 87.5515 64.0906 87.9085 64.7264 88.5432C65.3623 89.178 65.7199 90.0386 65.7209 90.9362V93.1144C65.7209 93.2693 65.6903 93.4227 65.6308 93.5658C65.5714 93.7089 65.4843 93.8389 65.3745 93.9484C65.2647 94.0579 65.1343 94.1446 64.9909 94.2038C64.8474 94.2629 64.6937 94.2933 64.5385 94.2931ZM42.2321 91.9357H63.3583V90.9362C63.3583 90.663 63.2496 90.4009 63.056 90.2077C62.8624 90.0144 62.5999 89.9059 62.3262 89.9059H43.2627C42.9889 89.9059 42.7264 90.0144 42.5329 90.2077C42.3393 90.4009 42.2306 90.663 42.2306 90.9362L42.2321 91.9357Z" fill="#4F114D"/>
<g opacity="0.3">
<path opacity="0.3" d="M57.0769 138.624H38.1043C36.7536 138.624 35.4583 138.088 34.5033 137.135C33.5482 136.182 33.0117 134.888 33.0117 133.54V115.83C33.0137 112.809 33.4267 109.802 34.2394 106.892L34.2436 106.888C37.7415 117.517 43.0631 123.076 50.2086 123.567C50.6881 123.596 51.1384 123.806 51.4682 124.155C51.798 124.504 51.9825 124.965 51.9844 125.444V133.54C51.9853 134.888 52.5222 136.181 53.477 137.134C54.4318 138.087 55.7266 138.623 57.0769 138.624Z" fill="#4F114D"/>
</g>
<path d="M46.7885 114.659H39.6172C38.5202 114.659 37.6309 115.547 37.6309 116.642V129.787C37.6309 130.882 38.5202 131.769 39.6172 131.769H46.7885C47.8855 131.769 48.7748 130.882 48.7748 129.787V116.642C48.7748 115.547 47.8855 114.659 46.7885 114.659Z" fill="#4F114D"/>
<path d="M43.2522 127.481C43.1477 127.481 43.0476 127.44 42.9737 127.366C42.8999 127.293 42.8584 127.193 42.8584 127.088V119.814C42.858 119.771 42.8738 119.73 42.9026 119.698C42.9314 119.666 42.9712 119.645 43.0142 119.641C43.0571 119.637 43.1001 119.649 43.1347 119.675C43.1693 119.7 43.193 119.738 43.2011 119.78V119.78C43.4967 121.244 43.6455 122.733 43.6454 124.226V127.088C43.6454 127.192 43.604 127.292 43.5303 127.366C43.4565 127.44 43.3565 127.481 43.2522 127.481V127.481Z" fill="#FF8A30"/>
<path d="M44.177 122.199C44.564 120.505 45.5886 119.9 47.2507 120.383C47.2507 122.099 46.2335 122.918 44.5671 122.749C44.5039 122.741 44.4431 122.721 44.3884 122.688C44.3337 122.656 44.2865 122.612 44.2497 122.561C44.2129 122.509 44.1875 122.45 44.1749 122.388C44.1624 122.325 44.1631 122.261 44.177 122.199V122.199Z" fill="#FF8A30"/>
<path d="M42.229 124.264C41.8419 122.57 40.8174 121.965 39.1553 122.448C39.1553 124.164 40.1725 124.983 41.8389 124.814C41.902 124.806 41.963 124.786 42.0177 124.753C42.0724 124.721 42.1197 124.677 42.1565 124.625C42.1933 124.574 42.2187 124.515 42.2312 124.452C42.2437 124.39 42.243 124.326 42.229 124.264V124.264Z" fill="#FF8A30"/>
<g opacity="0.25">
<path opacity="0.25" d="M49.3502 104.374C45.7377 107.759 41.5813 107.316 41.0931 103.854C41.0214 103.346 41.4337 102.895 41.9482 102.895H48.7567C49.5308 102.894 49.9147 103.844 49.3502 104.374Z" fill="white"/>
</g>
<g opacity="0.3">
<path opacity="0.3" d="M74.044 115.83V133.542C74.0443 134.408 73.8226 135.26 73.4001 136.017C72.9776 136.774 72.3682 137.41 71.6298 137.866C70.1324 137.18 68.8526 136.097 67.9305 134.734C67.0084 133.371 66.4795 131.781 66.4016 130.138L64.8379 97.1677H62.6064C62.3292 97.1677 62.0562 97.0999 61.8112 96.9703C61.5663 96.8407 61.3568 96.6533 61.2012 96.4243L62.5538 94.2281C62.7621 93.8887 63.0541 93.6084 63.402 93.4138C63.7499 93.2193 64.1419 93.1172 64.5406 93.1172C64.9394 93.1172 65.3314 93.2193 65.6793 93.4138C66.0272 93.6084 66.3192 93.8887 66.5275 94.2281L69.1218 98.4376C72.3437 103.668 74.0477 109.69 74.044 115.83V115.83Z" fill="#4F114D"/>
</g>
<path d="M80.5183 87.2786L90.3189 72.5175C93.1521 63.1259 94.723 49.8928 91.8238 37.7302C90.8577 33.6686 89.3879 29.7219 87.3051 26.0833C86.3302 24.374 83.7221 25.2729 84.0023 27.2197C86.659 45.4655 78.7952 65.2392 78.4556 78.0545C78.3519 81.7946 78.8948 84.9351 80.5183 87.2786Z" fill="#23DB23"/>
<g opacity="0.55">
<path opacity="0.55" d="M79.7764 86.7897C79.9519 87.1297 80.1494 87.4579 80.3678 87.7721L90.1684 73.0105C93.9455 60.4827 95.4839 41.118 87.1546 26.5764C86.4352 25.3168 84.8286 25.4755 84.1495 26.4218C84.6393 26.4924 85.1115 26.7701 85.4159 27.3074C93.7426 41.8532 92.2068 61.2178 88.4339 73.7457L79.7764 86.7897Z" fill="white"/>
</g>
<path d="M101.728 89.0652C112.51 81.6097 105.519 64.3428 109.933 53.0215C110.457 51.6779 108.924 50.4554 107.743 51.2844C103.667 54.1482 100.637 57.8836 100.44 63.9714L91.5781 75.8341L93.3679 83.5421C93.3679 83.5421 90.9898 90.3418 101.728 89.0652Z" fill="#23DB23"/>
<g opacity="0.55">
<path opacity="0.55" d="M97.9258 89.1152C98.879 89.177 100.009 89.142 101.337 88.9833C112.123 81.5299 105.132 64.262 109.543 52.9406C110.063 51.5971 108.532 50.3772 107.349 51.205C107.314 51.2318 107.274 51.2565 107.239 51.2844C107.479 51.4779 107.651 51.7435 107.728 52.0418C107.805 52.3401 107.784 52.6553 107.667 52.9406C103.254 64.262 110.244 81.5324 99.4616 88.9833C98.9141 89.0493 98.4068 89.0936 97.9258 89.1152Z" fill="white"/>
</g>
<path d="M80.5201 88.4558C80.3293 88.4557 80.1413 88.4095 79.9723 88.3211C79.8032 88.2328 79.6581 88.1048 79.5494 87.9483C75.5498 82.1882 77.563 72.3531 79.8941 60.9648C82.0394 50.4842 84.4716 38.6065 82.8357 27.3861C82.7349 26.7052 82.8758 26.0105 83.2338 25.4222C83.5919 24.834 84.1446 24.3892 84.7965 24.1647C85.4483 23.9403 86.1583 23.9503 86.8035 24.1932C87.4487 24.436 87.9886 24.8963 88.3298 25.4944C96.7293 40.168 95.4515 59.5806 91.4494 72.8549C91.4159 72.9645 91.3665 73.0687 91.3028 73.164L81.5027 87.9256C81.3962 88.0861 81.2519 88.2181 81.0825 88.31C80.9131 88.402 80.7237 88.4511 80.5309 88.4532L80.5201 88.4558ZM85.7943 26.3553C85.7176 26.3562 85.6416 26.3696 85.5693 26.3949C85.3949 26.4552 85.1116 26.6196 85.174 27.0487C86.8672 38.675 84.3916 50.7691 82.2076 61.4388C80.2074 71.212 78.4522 79.785 80.6182 84.9974L89.2396 72.0121C93.0585 59.2112 94.2749 40.6306 86.281 26.6659C86.1411 26.4217 85.9553 26.3553 85.7943 26.3553Z" fill="#4F114D"/>
<path d="M77.7694 53.5665C79.3801 58.1613 81.4185 62.582 83.731 66.8702C85.2931 69.7773 86.9786 72.6143 88.7441 75.4029C88.6202 76.5744 88.5454 78.2178 88.4793 79.9926C88.3601 83.1207 88.2806 86.6578 88.0665 88.7195H98.2113C99.9659 81.7988 98.41 74.403 95.5463 67.8552C95.537 67.8284 95.5241 67.8037 95.5154 67.78C93.5543 63.3176 91.0256 59.1504 88.468 54.9966C87.2588 53.039 86.0456 51.0762 84.8849 49.0892C81.2622 42.8958 78.0729 36.2486 77.3504 29.1166C77.2621 28.2445 77.0676 27.1739 76.2336 26.9097C75.6144 26.7113 74.9435 27.1121 74.6055 27.6628C74.2674 28.2135 74.2086 28.8786 74.1642 29.5221C73.595 37.6602 75.0689 45.8622 77.7694 53.5665Z" fill="#23DB23"/>
<g opacity="0.55">
<path opacity="0.55" d="M73.708 28.5087C73.7529 28.5148 73.7972 28.5252 73.8401 28.5396C74.6746 28.8039 74.8686 29.8744 74.9569 30.7466C75.6763 37.8786 78.8666 44.5258 82.4915 50.7192C86.1163 56.9125 90.2402 62.8421 93.1225 69.41C95.8804 75.7007 97.4466 82.7797 96.0259 89.4707H97.363C99.128 82.5241 97.5483 75.0975 94.6671 68.5291C91.7859 61.9607 87.6594 56.0275 84.0361 49.8382C80.4128 43.649 77.224 36.9971 76.5015 29.8657C76.4132 28.9935 76.2187 27.923 75.3847 27.6587C74.7654 27.4603 74.0945 27.8611 73.7565 28.4119C73.7379 28.4429 73.7217 28.4752 73.708 28.5087V28.5087Z" fill="white"/>
</g>
<g opacity="0.3">
<path opacity="0.3" d="M92.6164 61.9895C92.0735 65.8017 91.2664 69.3755 90.3179 72.5185L88.5787 75.1386L80.5188 87.2786C78.8932 84.9371 78.3513 81.7941 78.4546 78.054C78.7126 77.3075 79.0171 76.5729 79.3479 75.8578V70.9472L80.8749 63.0229L84.1411 67.8866C84.1648 67.8475 84.1927 67.8078 84.2159 67.7687C84.0508 67.4699 83.8892 67.1675 83.7277 66.8692C85.4478 64.1821 87.014 61.4357 87.8366 58.3689C88.1294 57.2598 88.3385 56.1303 88.4621 54.9899C88.7222 55.4103 88.9802 55.8307 89.2362 56.2511C89.9071 51.8592 89.4013 47.2871 90.0154 42.8567C90.1975 41.5386 90.4831 40.2369 90.8695 38.9636C91.0502 38.3706 91.3964 37.9657 91.8217 37.7272C93.7538 45.8272 93.7027 54.3954 92.6164 61.9895Z" fill="#4F114D"/>
</g>
<g opacity="0.3">
<path opacity="0.3" d="M95.5438 67.849C94.1665 70.9055 91.9546 73.6868 90.1794 76.5903C89.5125 77.6709 88.9436 78.8088 88.4795 79.9904C88.5466 78.2146 88.6214 76.5687 88.7432 75.3977C88.688 75.3117 88.6328 75.221 88.5781 75.1345L90.3172 72.5143C91.2657 69.3718 92.0718 65.8002 92.6157 61.9854C93.6623 63.8714 94.6423 65.7924 95.5123 67.7722C95.5201 67.8042 95.5356 67.8273 95.5438 67.849Z" fill="#4F114D"/>
</g>
<path d="M98.209 89.8984C98.0292 89.8983 97.8517 89.8573 97.6902 89.7784C97.5287 89.6995 97.3873 89.5848 97.2769 89.4431C97.1665 89.3013 97.09 89.1364 97.0531 88.9606C97.0163 88.7849 97.0202 88.6031 97.0644 88.4291C98.9516 81.0107 96.6742 73.3609 94.4325 68.2484C92.4105 63.6392 89.7007 59.2402 87.0796 54.9854C86.0139 53.2549 84.9121 51.4658 83.865 49.6792C80.6995 44.273 76.9642 37.0632 76.1756 29.227C76.0874 28.345 75.9372 28.0993 75.881 28.0359C75.7715 28.082 75.6797 28.1618 75.6188 28.2636C75.4273 28.5815 75.3788 29.076 75.3422 29.5974C74.8194 37.0519 76.0131 44.9839 78.8834 53.1741C81.2625 59.9557 84.715 66.8188 89.7435 74.772C89.8847 74.996 89.9466 75.2608 89.9195 75.5241C89.7543 77.0985 89.6681 79.6419 89.5851 82.1013C89.5004 84.5999 89.4132 87.1834 89.2398 88.8397C89.2249 88.9946 89.1795 89.1451 89.1061 89.2824C89.0326 89.4197 88.9327 89.5412 88.812 89.6397C88.6913 89.7383 88.5522 89.812 88.4028 89.8566C88.2534 89.9012 88.0967 89.9158 87.9416 89.8996C87.7865 89.8834 87.6362 89.8368 87.4993 89.7622C87.3624 89.6877 87.2416 89.5869 87.144 89.4656C87.0463 89.3442 86.9737 89.2048 86.9303 89.0553C86.8869 88.9057 86.8736 88.7491 86.8912 88.5945C87.0558 87.0211 87.142 84.4793 87.2251 82.0214C87.303 79.7191 87.3835 77.3447 87.5311 75.689C82.5201 67.7255 79.0599 60.8094 76.6551 53.953C73.6753 45.4589 72.4414 37.21 72.9869 29.431C73.0416 28.6448 73.1339 27.8128 73.5953 27.0468C74.2466 25.9649 75.5047 25.4338 76.5885 25.7779C78.2538 26.3065 78.4499 28.2564 78.5237 28.9905C79.2653 36.3713 82.8556 43.2864 85.9035 48.486C86.9356 50.25 88.0317 52.0278 89.0907 53.7469C91.7536 58.0702 94.5094 62.5403 96.5953 67.2995C100.024 75.1156 100.978 82.6216 99.3531 89.0061C99.2891 89.2607 99.1419 89.4868 98.9346 89.6484C98.7274 89.81 98.472 89.898 98.209 89.8984V89.8984Z" fill="#4F114D"/>
<path d="M91.7233 89.0631C90.0683 85.292 91.6087 80.4994 93.85 76.8345C96.3922 72.689 99.8116 68.7907 100.439 63.9713C101.025 59.443 99.0174 55.0378 98.0601 50.5713C97.3009 47.0295 97.2261 43.3909 97.7024 39.8043C98.0425 37.2625 94.3666 36.5073 93.6296 38.9672C93.244 40.2417 92.9587 41.5444 92.7766 42.8634C92.0541 48.0923 92.8865 53.5191 91.5096 58.6162C90.0182 64.1444 86.1173 68.6418 83.267 73.6106C80.5752 78.3069 78.8583 84.2931 81.193 89.0656" fill="#23DB23"/>
<g opacity="0.55">
<path opacity="0.55" d="M89.75 89.063H91.7229C90.0679 85.292 91.6078 80.4994 93.8496 76.8345C96.3912 72.6889 99.8111 68.7907 100.438 63.9713C101.025 59.4429 99.0169 55.0377 98.0591 50.5712C97.3005 47.0295 97.2251 43.3908 97.702 39.8042C97.9708 37.7863 95.7074 36.8925 94.3992 37.844C95.2863 38.1016 96.0057 38.9012 95.8441 40.0907C95.3673 43.6762 95.4427 47.3149 96.2018 50.8577C97.1591 55.3242 99.1671 59.7294 98.5798 64.2577C97.9533 69.0771 94.5334 72.9754 91.9917 77.1204C89.8078 80.6931 88.2874 85.3404 89.75 89.063Z" fill="white"/>
</g>
<path d="M91.7239 90.2418C91.494 90.2421 91.2691 90.1755 91.0766 90.0502C90.8841 89.9248 90.7325 89.7462 90.6401 89.5361C88.3994 84.4292 91.4328 78.5228 92.8411 76.22C93.4501 75.2273 94.1117 74.2423 94.7506 73.2903C96.8437 70.1761 98.8208 67.235 99.2646 63.8199C99.6506 60.8392 98.813 57.8821 97.9228 54.753C97.5616 53.4718 97.1843 52.1473 96.8994 50.8202C96.1393 47.2702 96.0134 43.5131 96.5263 39.6524C96.6244 38.9209 96.0763 38.722 95.8364 38.6705C95.6397 38.6282 94.9823 38.5499 94.7526 39.3083C94.385 40.524 94.1131 41.7666 93.9393 43.0247C93.6498 45.1152 93.6168 47.3083 93.5848 49.4298C93.5378 52.5573 93.4893 55.7916 92.6435 58.9238C91.5597 62.9421 89.271 66.4236 87.0581 69.7892C86.1148 71.2244 85.1389 72.7092 84.2848 74.1975C82.8156 76.7609 79.6753 83.2912 82.2469 88.5475C82.3797 88.8277 82.3965 89.1489 82.2938 89.4415C82.191 89.734 81.977 89.9744 81.6979 90.1105C81.4189 90.2466 81.0974 90.2675 80.803 90.1687C80.5087 90.0699 80.2652 89.8592 80.1253 89.5824C77.9656 85.168 78.735 79.1338 82.2355 73.0265C83.1252 71.4758 84.1212 69.9607 85.0842 68.493C87.2919 65.1352 89.3773 61.9633 90.3635 58.3082C91.1324 55.4593 91.1768 52.512 91.2238 49.3916C91.2568 47.1996 91.2909 44.9329 91.6 42.7006C91.7908 41.323 92.0886 39.9623 92.4907 38.6308C93.0615 36.7247 94.8538 36.0488 96.3297 36.3641C97.7866 36.6763 99.1252 38.0126 98.8646 39.961C98.3873 43.5527 98.5034 47.0399 99.2063 50.3246C99.4746 51.577 99.8395 52.8644 100.192 54.1095C101.105 57.3309 102.05 60.6625 101.601 64.1229C101.085 68.0896 98.8589 71.4006 96.7059 74.6034C96.0794 75.5359 95.4312 76.4998 94.8481 77.4497C92.3194 81.587 91.5499 85.7522 92.7957 88.5902C92.8742 88.7698 92.9067 88.9661 92.8902 89.1613C92.8737 89.3566 92.8087 89.5446 92.7012 89.7085C92.5936 89.8724 92.4469 90.007 92.2742 90.1001C92.1015 90.1932 91.9083 90.2419 91.712 90.2418H91.7239Z" fill="#4F114D"/>
<path d="M84.6999 88.822C84.4847 86.411 84.2515 83.8615 84.7128 81.2722C84.8265 80.6223 84.9939 79.9828 85.2134 79.3604C85.4309 78.7331 85.7074 78.1276 86.0391 77.5522C86.361 76.9873 86.7269 76.4487 87.1337 75.9413C87.5256 75.4446 87.9435 74.969 88.3857 74.5163C90.1145 72.7132 92.0379 71.2563 93.4973 69.4311C94.2296 68.5213 94.8654 67.5312 95.2886 66.456C95.5012 65.9209 95.6505 65.3628 95.7335 64.7931C95.8073 64.2219 95.8051 63.6435 95.7267 63.0729V63.0647C95.7174 62.9955 95.7353 62.9254 95.7765 62.8691C95.8177 62.8128 95.8792 62.7745 95.948 62.7623C96.0168 62.7502 96.0877 62.765 96.1458 62.8038C96.2039 62.8426 96.2448 62.9022 96.2598 62.9704C96.3939 63.5903 96.444 64.2253 96.409 64.8585C96.3652 65.4913 96.2473 66.1169 96.0575 66.7224C95.6834 67.932 95.077 69.0488 94.369 70.0761C93.6609 71.1033 92.8285 72.0466 92.0038 72.9358C91.1792 73.825 90.3447 74.6956 89.5995 75.5982C89.2277 76.0399 88.8795 76.5009 88.5565 76.9793C88.2396 77.4408 87.9599 77.9265 87.72 78.4321C87.4833 78.9244 87.2944 79.4381 87.1559 79.9663C87.0125 80.497 86.914 81.0388 86.8612 81.586C86.6316 83.8012 86.9939 86.1091 87.3902 88.4758V88.4789C87.4495 88.8331 87.3655 89.1962 87.1566 89.4885C86.9477 89.7808 86.631 89.9783 86.2763 90.0376C85.9215 90.0968 85.5577 90.0129 85.2649 89.8044C84.9721 89.5958 84.7742 89.2797 84.7149 88.9256C84.7072 88.8921 84.7025 88.8555 84.6999 88.822Z" fill="#4F114D"/>
<path d="M87.0241 65.6364L83.5515 57.5606C83.5262 57.5064 83.5224 57.4447 83.5407 57.3878C83.5591 57.3309 83.5983 57.2831 83.6505 57.2538C83.7027 57.2246 83.7641 57.2161 83.8223 57.2301C83.8805 57.2441 83.9312 57.2795 83.9644 57.3293L89.0832 64.4793C89.2663 64.7351 89.3402 65.0531 89.2884 65.3633C89.2367 65.6735 89.0636 65.9504 88.8074 66.1332C88.5511 66.316 88.2325 66.3897 87.9218 66.3381C87.6111 66.2865 87.3337 66.1137 87.1505 65.8579C87.1011 65.7884 87.0587 65.7142 87.0241 65.6364V65.6364Z" fill="#4F114D"/>
<path d="M101.729 90.2439C101.477 90.2442 101.232 90.1642 101.029 90.0155C100.826 89.8668 100.676 89.6572 100.601 89.4174C100.526 89.1775 100.529 88.92 100.611 88.6823C100.693 88.4446 100.849 88.2393 101.056 88.0962C107.113 83.9079 107.088 76.2226 107.062 68.0856C107.044 62.7474 107.026 57.2274 108.833 52.594C108.86 52.5361 108.865 52.4705 108.848 52.409C108.831 52.3475 108.792 52.2941 108.739 52.2586C108.697 52.2186 108.641 52.1955 108.583 52.1936C108.524 52.1917 108.467 52.2111 108.422 52.2483C103.878 55.4397 101.78 59.067 101.619 64.0096C101.617 64.1659 101.583 64.3203 101.52 64.4635C101.457 64.6068 101.366 64.7361 101.253 64.844C101.14 64.9519 101.006 65.0362 100.859 65.0919C100.713 65.1476 100.557 65.1737 100.4 65.1687C100.244 65.1636 100.09 65.1275 99.9473 65.0624C99.8048 64.9974 99.6767 64.9046 99.5705 64.7897C99.4643 64.6747 99.3821 64.5397 99.3286 64.3927C99.2752 64.2457 99.2516 64.0895 99.2592 63.9333C99.4434 58.2556 101.924 53.9298 107.064 50.3205C107.529 49.9971 108.086 49.8316 108.653 49.8486C109.219 49.8656 109.766 50.0641 110.211 50.4147C110.656 50.7654 110.976 51.2497 111.124 51.796C111.272 52.3424 111.24 52.9218 111.033 53.4486C109.389 57.6663 109.407 62.9591 109.423 68.0794C109.45 76.4679 109.478 85.1417 102.4 90.0353C102.203 90.1717 101.969 90.2445 101.729 90.2439Z" fill="#4F114D"/>
<path d="M104.057 66.8074C104.054 68.3472 103.779 69.8881 103.373 71.3707C102.967 72.8534 102.444 74.2917 101.967 75.711C101.49 77.1303 101.051 78.5367 100.758 79.9503C100.462 81.3444 100.31 82.7651 100.303 84.1901V84.1943C100.302 84.5537 100.158 84.8981 99.903 85.1516C99.6477 85.405 99.3019 85.5468 98.9418 85.5458C98.5817 85.5448 98.2368 85.401 97.9828 85.1461C97.7289 84.8912 97.5869 84.546 97.5879 84.1865C97.5884 84.1328 97.5919 84.0792 97.5982 84.0258C97.7946 82.4438 98.1527 80.8861 98.667 79.3769C99.1702 77.8829 99.8054 76.4704 100.46 75.101C101.115 73.7317 101.789 72.3969 102.345 71.0271C102.901 69.6573 103.335 68.2452 103.516 66.7744C103.523 66.7049 103.557 66.641 103.611 66.5959C103.664 66.5508 103.733 66.5281 103.803 66.5324C103.873 66.5367 103.938 66.5678 103.985 66.6191C104.033 66.6704 104.059 66.738 104.057 66.8079V66.8074Z" fill="#4F114D"/>
<path d="M114.807 85.119H68.7622C67.8203 85.119 67.0566 85.8813 67.0566 86.8216V95.4641C67.0566 96.4044 67.8203 97.1667 68.7622 97.1667H114.807C115.749 97.1667 116.513 96.4044 116.513 95.4641V86.8216C116.513 85.8813 115.749 85.119 114.807 85.119Z" fill="#F43F08"/>
<path d="M102.042 138.68H81.5267C79.2179 138.68 76.9977 137.792 75.327 136.201C73.6563 134.611 72.6634 132.439 72.5544 130.136L70.9912 97.1656H112.576L111.014 130.136C110.905 132.439 109.912 134.61 108.241 136.201C106.571 137.792 104.351 138.679 102.042 138.68V138.68Z" fill="#F43F08"/>
<g opacity="0.3">
<path opacity="0.3" d="M78.798 97.1667H68.7626C68.3109 97.1667 67.8778 96.9876 67.5584 96.6688C67.239 96.3499 67.0596 95.9175 67.0596 95.4666V86.8226C67.0592 86.599 67.103 86.3776 67.1884 86.1709C67.2738 85.9642 67.3992 85.7763 67.5573 85.6179C67.7154 85.4596 67.9033 85.3339 68.1101 85.248C68.3169 85.1621 68.5386 85.1178 68.7626 85.1174H78.798C78.5741 85.1178 78.3523 85.1621 78.1455 85.248C77.9387 85.3339 77.7509 85.4596 77.5928 85.6179C77.4346 85.7763 77.3093 85.9642 77.2239 86.1709C77.1385 86.3776 77.0947 86.599 77.095 86.8226V95.4656C77.0949 95.689 77.1388 95.9101 77.2244 96.1165C77.3099 96.3229 77.4353 96.5104 77.5935 96.6684C77.7516 96.8264 77.9394 96.9517 78.1461 97.0372C78.3528 97.1227 78.5743 97.1667 78.798 97.1667V97.1667Z" fill="#4F114D"/>
</g>
<g opacity="0.55">
<path opacity="0.55" d="M116.513 86.8226V95.4656C116.513 95.9165 116.333 96.3489 116.014 96.6677C115.694 96.9866 115.261 97.1657 114.81 97.1657H110.874C111.326 97.1657 111.759 96.9866 112.078 96.6677C112.398 96.3489 112.577 95.9165 112.577 95.4656V86.8226C112.578 86.3711 112.399 85.9379 112.079 85.6181C111.76 85.2983 111.326 85.1183 110.874 85.1174H114.81C115.262 85.1183 115.695 85.2983 116.015 85.6181C116.334 85.9379 116.513 86.3711 116.513 86.8226V86.8226Z" fill="white"/>
</g>
<g opacity="0.55">
<path opacity="0.55" d="M112.577 97.1667L111.014 130.137C110.905 132.44 109.912 134.612 108.241 136.203C106.57 137.794 104.35 138.682 102.041 138.682H98.1055C100.414 138.682 102.635 137.794 104.305 136.203C105.976 134.612 106.969 132.44 107.078 130.137L108.641 97.1667H112.577Z" fill="white"/>
</g>
<path d="M114.808 98.347H68.7628C67.9978 98.3459 67.2644 98.042 66.7234 97.502C66.1824 96.962 65.878 96.2299 65.877 95.4662V86.8216C65.8779 86.0578 66.1822 85.3256 66.7232 84.7855C67.2642 84.2453 67.9977 83.9414 68.7628 83.9403H114.808C115.573 83.9414 116.307 84.2453 116.848 84.7855C117.389 85.3256 117.693 86.0578 117.694 86.8216V95.4646C117.693 96.2286 117.389 96.9611 116.848 97.5014C116.307 98.0418 115.574 98.3459 114.808 98.347V98.347ZM68.7628 86.2993C68.6236 86.2994 68.4902 86.3546 68.3918 86.4529C68.2934 86.5511 68.2381 86.6843 68.238 86.8232V95.4662C68.2381 95.6051 68.2934 95.7382 68.3918 95.8365C68.4902 95.9347 68.6236 95.9899 68.7628 95.9901H114.808C114.947 95.9898 115.081 95.9345 115.179 95.8363C115.277 95.7381 115.333 95.605 115.333 95.4662V86.8216C115.333 86.6828 115.277 86.5497 115.179 86.4515C115.081 86.3533 114.947 86.298 114.808 86.2977L68.7628 86.2993Z" fill="#4F114D"/>
<path d="M102.042 139.858H81.5267C78.9135 139.861 76.3997 138.858 74.5088 137.058C72.6178 135.257 71.4954 132.798 71.3752 130.192L69.812 97.2213C69.8041 97.0618 69.8287 96.9024 69.8844 96.7527C69.9401 96.6031 70.0257 96.4663 70.136 96.3507C70.2463 96.235 70.379 96.143 70.526 96.0801C70.673 96.0172 70.8313 95.9848 70.9912 95.9849H112.577C112.737 95.9848 112.895 96.0172 113.042 96.0801C113.189 96.143 113.322 96.235 113.432 96.3507C113.542 96.4663 113.628 96.6031 113.684 96.7527C113.739 96.9024 113.764 97.0618 113.756 97.2213L112.193 130.192C112.072 132.798 110.95 135.257 109.059 137.057C107.168 138.858 104.655 139.861 102.042 139.858V139.858ZM72.2303 98.3469L73.7341 130.081C73.8271 132.081 74.6889 133.968 76.1404 135.35C77.5918 136.732 79.521 137.502 81.5267 137.5H102.041C104.046 137.502 105.976 136.732 107.427 135.35C108.879 133.968 109.74 132.081 109.833 130.081L111.338 98.3469H72.2303Z" fill="#4F114D"/>
<g opacity="0.3">
<path opacity="0.3" d="M108.373 97.1666C108.374 97.9057 108.229 98.6377 107.946 99.3206C107.663 100.004 107.248 100.624 106.724 101.147C106.2 101.669 105.579 102.084 104.895 102.366C104.21 102.649 103.477 102.794 102.737 102.793H85.4419C84.907 102.793 84.3777 102.901 83.886 103.111C83.3943 103.321 82.9504 103.629 82.5812 104.015C82.212 104.402 81.9252 104.859 81.7382 105.359C81.5511 105.859 81.4677 106.392 81.493 106.925L82.5922 130.136C82.7007 132.439 83.6935 134.611 85.3643 136.202C87.0352 137.794 89.2558 138.681 91.565 138.681H81.5296C79.2203 138.681 76.9997 137.794 75.3287 136.202C73.6578 134.611 72.6649 132.439 72.5563 130.136L70.9941 97.165L108.373 97.1666Z" fill="#4F114D"/>
</g>
<g opacity="0.2">
<path opacity="0.2" d="M166.368 141.103C166.368 143.807 131.364 146 88.184 146C45.0043 146 10 143.807 10 141.103C10 140.223 13.7059 139.396 20.1933 138.682H156.177C162.662 139.396 166.368 140.223 166.368 141.103Z" fill="#4F114D"/>
</g>
</g>
<g style="mix-blend-mode:multiply">
<circle cx="3.5" cy="171.5" r="44.5" fill="#C5CAE9"/>
</g>
<g style="mix-blend-mode:multiply" opacity="0.48">
<circle cx="342" cy="-7" r="58" fill="#DE007F"/>
</g>
<path d="M170.982 84.098C170.077 84.098 169.241 83.888 168.476 83.468C167.72 83.0387 167.118 82.446 166.67 81.69C166.231 80.9247 166.012 80.066 166.012 79.114C166.012 78.162 166.231 77.308 166.67 76.552C167.118 75.796 167.72 75.208 168.476 74.788C169.241 74.3587 170.077 74.144 170.982 74.144C171.897 74.144 172.732 74.3587 173.488 74.788C174.253 75.208 174.855 75.796 175.294 76.552C175.733 77.308 175.952 78.162 175.952 79.114C175.952 80.066 175.733 80.9247 175.294 81.69C174.855 82.446 174.253 83.0387 173.488 83.468C172.732 83.888 171.897 84.098 170.982 84.098ZM170.982 82.712C171.626 82.712 172.2 82.5673 172.704 82.278C173.208 81.9793 173.6 81.5593 173.88 81.018C174.169 80.4673 174.314 79.8327 174.314 79.114C174.314 78.3953 174.169 77.7653 173.88 77.224C173.6 76.6827 173.208 76.2673 172.704 75.978C172.2 75.6887 171.626 75.544 170.982 75.544C170.338 75.544 169.764 75.6887 169.26 75.978C168.756 76.2673 168.359 76.6827 168.07 77.224C167.79 77.7653 167.65 78.3953 167.65 79.114C167.65 79.8327 167.79 80.4673 168.07 81.018C168.359 81.5593 168.756 81.9793 169.26 82.278C169.764 82.5673 170.338 82.712 170.982 82.712ZM179.919 77.406C180.152 77.014 180.46 76.7107 180.843 76.496C181.235 76.272 181.697 76.16 182.229 76.16V77.812H181.823C181.197 77.812 180.721 77.9707 180.395 78.288C180.077 78.6053 179.919 79.156 179.919 79.94V84H178.323V76.286H179.919V77.406ZM183.964 80.108C183.964 79.3333 184.122 78.6473 184.44 78.05C184.766 77.4527 185.205 76.9907 185.756 76.664C186.316 76.328 186.936 76.16 187.618 76.16C188.122 76.16 188.616 76.272 189.102 76.496C189.596 76.7107 189.988 77 190.278 77.364V73.64H191.888V84H190.278V82.838C190.016 83.2113 189.652 83.5193 189.186 83.762C188.728 84.0047 188.201 84.126 187.604 84.126C186.932 84.126 186.316 83.958 185.756 83.622C185.205 83.2767 184.766 82.8007 184.44 82.194C184.122 81.578 183.964 80.8827 183.964 80.108ZM190.278 80.136C190.278 79.604 190.166 79.142 189.942 78.75C189.727 78.358 189.442 78.0593 189.088 77.854C188.733 77.6487 188.35 77.546 187.94 77.546C187.529 77.546 187.146 77.6487 186.792 77.854C186.437 78.05 186.148 78.344 185.924 78.736C185.709 79.1187 185.602 79.576 185.602 80.108C185.602 80.64 185.709 81.1067 185.924 81.508C186.148 81.9093 186.437 82.2173 186.792 82.432C187.156 82.6373 187.538 82.74 187.94 82.74C188.35 82.74 188.733 82.6373 189.088 82.432C189.442 82.2267 189.727 81.928 189.942 81.536C190.166 81.1347 190.278 80.668 190.278 80.136ZM201.854 79.954C201.854 80.2433 201.835 80.5047 201.798 80.738H195.904C195.951 81.354 196.179 81.8487 196.59 82.222C197.001 82.5953 197.505 82.782 198.102 82.782C198.961 82.782 199.567 82.4227 199.922 81.704H201.644C201.411 82.4133 200.986 82.9967 200.37 83.454C199.763 83.902 199.007 84.126 198.102 84.126C197.365 84.126 196.702 83.9627 196.114 83.636C195.535 83.3 195.078 82.8333 194.742 82.236C194.415 81.6293 194.252 80.9293 194.252 80.136C194.252 79.3427 194.411 78.6473 194.728 78.05C195.055 77.4433 195.507 76.9767 196.086 76.65C196.674 76.3233 197.346 76.16 198.102 76.16C198.83 76.16 199.479 76.3187 200.048 76.636C200.617 76.9533 201.061 77.4013 201.378 77.98C201.695 78.5493 201.854 79.2073 201.854 79.954ZM200.188 79.45C200.179 78.862 199.969 78.3907 199.558 78.036C199.147 77.6813 198.639 77.504 198.032 77.504C197.481 77.504 197.01 77.6813 196.618 78.036C196.226 78.3813 195.993 78.8527 195.918 79.45H200.188ZM205.821 77.406C206.054 77.014 206.362 76.7107 206.745 76.496C207.137 76.272 207.599 76.16 208.131 76.16V77.812H207.725C207.099 77.812 206.623 77.9707 206.297 78.288C205.979 78.6053 205.821 79.156 205.821 79.94V84H204.225V76.286H205.821V77.406ZM218.068 77.588H216.64V84H215.03V77.588H214.12V76.286H215.03V75.74C215.03 74.8533 215.264 74.2093 215.73 73.808C216.206 73.3973 216.948 73.192 217.956 73.192V74.522C217.471 74.522 217.13 74.6153 216.934 74.802C216.738 74.9793 216.64 75.292 216.64 75.74V76.286H218.068V77.588ZM219.751 80.108C219.751 79.3333 219.909 78.6473 220.227 78.05C220.553 77.4527 220.992 76.9907 221.543 76.664C222.103 76.328 222.719 76.16 223.391 76.16C223.997 76.16 224.525 76.2813 224.973 76.524C225.43 76.7573 225.794 77.0513 226.065 77.406V76.286H227.675V84H226.065V82.852C225.794 83.216 225.425 83.5193 224.959 83.762C224.492 84.0047 223.96 84.126 223.363 84.126C222.7 84.126 222.093 83.958 221.543 83.622C220.992 83.2767 220.553 82.8007 220.227 82.194C219.909 81.578 219.751 80.8827 219.751 80.108ZM226.065 80.136C226.065 79.604 225.953 79.142 225.729 78.75C225.514 78.358 225.229 78.0593 224.875 77.854C224.52 77.6487 224.137 77.546 223.727 77.546C223.316 77.546 222.933 77.6487 222.579 77.854C222.224 78.05 221.935 78.344 221.711 78.736C221.496 79.1187 221.389 79.576 221.389 80.108C221.389 80.64 221.496 81.1067 221.711 81.508C221.935 81.9093 222.224 82.2173 222.579 82.432C222.943 82.6373 223.325 82.74 223.727 82.74C224.137 82.74 224.52 82.6373 224.875 82.432C225.229 82.2267 225.514 81.928 225.729 81.536C225.953 81.1347 226.065 80.668 226.065 80.136ZM232.167 77.406C232.4 77.014 232.708 76.7107 233.091 76.496C233.483 76.272 233.945 76.16 234.477 76.16V77.812H234.071C233.446 77.812 232.97 77.9707 232.643 78.288C232.326 78.6053 232.167 79.156 232.167 79.94V84H230.571V76.286H232.167V77.406ZM246.082 76.16C246.689 76.16 247.23 76.286 247.706 76.538C248.191 76.79 248.569 77.1633 248.84 77.658C249.12 78.1527 249.26 78.75 249.26 79.45V84H247.678V79.688C247.678 78.9973 247.505 78.47 247.16 78.106C246.815 77.7327 246.343 77.546 245.746 77.546C245.149 77.546 244.673 77.7327 244.318 78.106C243.973 78.47 243.8 78.9973 243.8 79.688V84H242.218V79.688C242.218 78.9973 242.045 78.47 241.7 78.106C241.355 77.7327 240.883 77.546 240.286 77.546C239.689 77.546 239.213 77.7327 238.858 78.106C238.513 78.47 238.34 78.9973 238.34 79.688V84H236.744V76.286H238.34V77.168C238.601 76.8507 238.933 76.6033 239.334 76.426C239.735 76.2487 240.165 76.16 240.622 76.16C241.238 76.16 241.789 76.2907 242.274 76.552C242.759 76.8133 243.133 77.1913 243.394 77.686C243.627 77.2193 243.991 76.8507 244.486 76.58C244.981 76.3 245.513 76.16 246.082 76.16ZM252.903 75.264C252.614 75.264 252.371 75.166 252.175 74.97C251.979 74.774 251.881 74.5313 251.881 74.242C251.881 73.9527 251.979 73.71 252.175 73.514C252.371 73.318 252.614 73.22 252.903 73.22C253.183 73.22 253.421 73.318 253.617 73.514C253.813 73.71 253.911 73.9527 253.911 74.242C253.911 74.5313 253.813 74.774 253.617 74.97C253.421 75.166 253.183 75.264 252.903 75.264ZM253.687 76.286V84H252.091V76.286H253.687ZM260.474 76.16C261.081 76.16 261.622 76.286 262.098 76.538C262.584 76.79 262.962 77.1633 263.232 77.658C263.503 78.1527 263.638 78.75 263.638 79.45V84H262.056V79.688C262.056 78.9973 261.884 78.47 261.538 78.106C261.193 77.7327 260.722 77.546 260.124 77.546C259.527 77.546 259.051 77.7327 258.696 78.106C258.351 78.47 258.178 78.9973 258.178 79.688V84H256.582V76.286H258.178V77.168C258.44 76.8507 258.771 76.6033 259.172 76.426C259.583 76.2487 260.017 76.16 260.474 76.16ZM269.582 76.16C270.18 76.16 270.707 76.2813 271.164 76.524C271.631 76.7573 271.995 77.0513 272.256 77.406V76.286H273.866V84.126C273.866 84.8353 273.717 85.4653 273.418 86.016C273.12 86.576 272.686 87.0147 272.116 87.332C271.556 87.6493 270.884 87.808 270.1 87.808C269.055 87.808 268.187 87.5607 267.496 87.066C266.806 86.5807 266.414 85.918 266.32 85.078H267.902C268.024 85.4793 268.28 85.8013 268.672 86.044C269.074 86.296 269.55 86.422 270.1 86.422C270.744 86.422 271.262 86.226 271.654 85.834C272.056 85.442 272.256 84.8727 272.256 84.126V82.838C271.986 83.202 271.617 83.51 271.15 83.762C270.693 84.0047 270.17 84.126 269.582 84.126C268.91 84.126 268.294 83.958 267.734 83.622C267.184 83.2767 266.745 82.8007 266.418 82.194C266.101 81.578 265.942 80.8827 265.942 80.108C265.942 79.3333 266.101 78.6473 266.418 78.05C266.745 77.4527 267.184 76.9907 267.734 76.664C268.294 76.328 268.91 76.16 269.582 76.16ZM272.256 80.136C272.256 79.604 272.144 79.142 271.92 78.75C271.706 78.358 271.421 78.0593 271.066 77.854C270.712 77.6487 270.329 77.546 269.918 77.546C269.508 77.546 269.125 77.6487 268.77 77.854C268.416 78.05 268.126 78.344 267.902 78.736C267.688 79.1187 267.58 79.576 267.58 80.108C267.58 80.64 267.688 81.1067 267.902 81.508C268.126 81.9093 268.416 82.2173 268.77 82.432C269.134 82.6373 269.517 82.74 269.918 82.74C270.329 82.74 270.712 82.6373 271.066 82.432C271.421 82.2267 271.706 81.928 271.92 81.536C272.144 81.1347 272.256 80.668 272.256 80.136ZM282.011 75.264C281.722 75.264 281.479 75.166 281.283 74.97C281.087 74.774 280.989 74.5313 280.989 74.242C280.989 73.9527 281.087 73.71 281.283 73.514C281.479 73.318 281.722 73.22 282.011 73.22C282.291 73.22 282.529 73.318 282.725 73.514C282.921 73.71 283.019 73.9527 283.019 74.242C283.019 74.5313 282.921 74.774 282.725 74.97C282.529 75.166 282.291 75.264 282.011 75.264ZM282.795 76.286V84H281.199V76.286H282.795ZM289.583 76.16C290.189 76.16 290.731 76.286 291.207 76.538C291.692 76.79 292.07 77.1633 292.341 77.658C292.611 78.1527 292.747 78.75 292.747 79.45V84H291.165V79.688C291.165 78.9973 290.992 78.47 290.647 78.106C290.301 77.7327 289.83 77.546 289.233 77.546C288.635 77.546 288.159 77.7327 287.805 78.106C287.459 78.47 287.287 78.9973 287.287 79.688V84H285.691V76.286H287.287V77.168C287.548 76.8507 287.879 76.6033 288.281 76.426C288.691 76.2487 289.125 76.16 289.583 76.16ZM297.178 77.42C297.449 77.0653 297.818 76.7667 298.284 76.524C298.751 76.2813 299.278 76.16 299.866 76.16C300.538 76.16 301.15 76.328 301.7 76.664C302.26 76.9907 302.699 77.4527 303.016 78.05C303.334 78.6473 303.492 79.3333 303.492 80.108C303.492 80.8827 303.334 81.578 303.016 82.194C302.699 82.8007 302.26 83.2767 301.7 83.622C301.15 83.958 300.538 84.126 299.866 84.126C299.278 84.126 298.756 84.0093 298.298 83.776C297.841 83.5333 297.468 83.2347 297.178 82.88V87.668H295.582V76.286H297.178V77.42ZM301.868 80.108C301.868 79.576 301.756 79.1187 301.532 78.736C301.318 78.344 301.028 78.05 300.664 77.854C300.31 77.6487 299.927 77.546 299.516 77.546C299.115 77.546 298.732 77.6487 298.368 77.854C298.014 78.0593 297.724 78.358 297.5 78.75C297.286 79.142 297.178 79.604 297.178 80.136C297.178 80.668 297.286 81.1347 297.5 81.536C297.724 81.928 298.014 82.2267 298.368 82.432C298.732 82.6373 299.115 82.74 299.516 82.74C299.927 82.74 300.31 82.6373 300.664 82.432C301.028 82.2173 301.318 81.9093 301.532 81.508C301.756 81.1067 301.868 80.64 301.868 80.108ZM312.857 76.286V84H311.261V83.09C311.009 83.4073 310.677 83.6593 310.267 83.846C309.865 84.0233 309.436 84.112 308.979 84.112C308.372 84.112 307.826 83.986 307.341 83.734C306.865 83.482 306.487 83.1087 306.207 82.614C305.936 82.1193 305.801 81.522 305.801 80.822V76.286H307.383V80.584C307.383 81.2747 307.555 81.8067 307.901 82.18C308.246 82.544 308.717 82.726 309.315 82.726C309.912 82.726 310.383 82.544 310.729 82.18C311.083 81.8067 311.261 81.2747 311.261 80.584V76.286H312.857ZM317.624 77.588V81.858C317.624 82.1473 317.69 82.3573 317.82 82.488C317.96 82.6093 318.194 82.67 318.52 82.67H319.5V84H318.24C317.522 84 316.971 83.832 316.588 83.496C316.206 83.16 316.014 82.614 316.014 81.858V77.588H315.104V76.286H316.014V74.368H317.624V76.286H319.5V77.588H317.624ZM324.571 84.126C323.965 84.126 323.419 84.0187 322.933 83.804C322.457 83.58 322.079 83.2813 321.799 82.908C321.519 82.5253 321.37 82.1007 321.351 81.634H323.003C323.031 81.9607 323.185 82.236 323.465 82.46C323.755 82.6747 324.114 82.782 324.543 82.782C324.991 82.782 325.337 82.698 325.579 82.53C325.831 82.3527 325.957 82.1287 325.957 81.858C325.957 81.5687 325.817 81.354 325.537 81.214C325.267 81.074 324.833 80.92 324.235 80.752C323.657 80.5933 323.185 80.4393 322.821 80.29C322.457 80.1407 322.14 79.912 321.869 79.604C321.608 79.296 321.477 78.89 321.477 78.386C321.477 77.9753 321.599 77.602 321.841 77.266C322.084 76.9207 322.429 76.65 322.877 76.454C323.335 76.258 323.857 76.16 324.445 76.16C325.323 76.16 326.027 76.384 326.559 76.832C327.101 77.2707 327.39 77.8727 327.427 78.638H325.831C325.803 78.2927 325.663 78.0173 325.411 77.812C325.159 77.6067 324.819 77.504 324.389 77.504C323.969 77.504 323.647 77.5833 323.423 77.742C323.199 77.9007 323.087 78.1107 323.087 78.372C323.087 78.5773 323.162 78.75 323.311 78.89C323.461 79.03 323.643 79.142 323.857 79.226C324.072 79.3007 324.389 79.3987 324.809 79.52C325.369 79.6693 325.827 79.8233 326.181 79.982C326.545 80.1313 326.858 80.3553 327.119 80.654C327.381 80.9527 327.516 81.3493 327.525 81.844C327.525 82.2827 327.404 82.6747 327.161 83.02C326.919 83.3653 326.573 83.636 326.125 83.832C325.687 84.028 325.169 84.126 324.571 84.126ZM207.972 98.588H206.544V105H204.934V98.588H204.024V97.286H204.934V96.74C204.934 95.8533 205.167 95.2093 205.634 94.808C206.11 94.3973 206.852 94.192 207.86 94.192V95.522C207.374 95.522 207.034 95.6153 206.838 95.802C206.642 95.9793 206.544 96.292 206.544 96.74V97.286H207.972V98.588ZM213.532 105.126C212.804 105.126 212.146 104.963 211.558 104.636C210.97 104.3 210.508 103.833 210.172 103.236C209.836 102.629 209.668 101.929 209.668 101.136C209.668 100.352 209.841 99.6567 210.186 99.05C210.531 98.4433 211.003 97.9767 211.6 97.65C212.197 97.3233 212.865 97.16 213.602 97.16C214.339 97.16 215.007 97.3233 215.604 97.65C216.201 97.9767 216.673 98.4433 217.018 99.05C217.363 99.6567 217.536 100.352 217.536 101.136C217.536 101.92 217.359 102.615 217.004 103.222C216.649 103.829 216.164 104.3 215.548 104.636C214.941 104.963 214.269 105.126 213.532 105.126ZM213.532 103.74C213.943 103.74 214.325 103.642 214.68 103.446C215.044 103.25 215.338 102.956 215.562 102.564C215.786 102.172 215.898 101.696 215.898 101.136C215.898 100.576 215.791 100.105 215.576 99.722C215.361 99.33 215.077 99.036 214.722 98.84C214.367 98.644 213.985 98.546 213.574 98.546C213.163 98.546 212.781 98.644 212.426 98.84C212.081 99.036 211.805 99.33 211.6 99.722C211.395 100.105 211.292 100.576 211.292 101.136C211.292 101.967 211.502 102.611 211.922 103.068C212.351 103.516 212.888 103.74 213.532 103.74ZM221.51 98.406C221.743 98.014 222.051 97.7107 222.434 97.496C222.826 97.272 223.288 97.16 223.82 97.16V98.812H223.414C222.788 98.812 222.312 98.9707 221.986 99.288C221.668 99.6053 221.51 100.156 221.51 100.94V105H219.914V97.286H221.51V98.406ZM237.467 97.286L232.735 108.626H231.083L232.651 104.874L229.613 97.286H231.391L233.561 103.166L235.815 97.286H237.467ZM242.818 105.126C242.09 105.126 241.432 104.963 240.844 104.636C240.256 104.3 239.794 103.833 239.458 103.236C239.122 102.629 238.954 101.929 238.954 101.136C238.954 100.352 239.127 99.6567 239.472 99.05C239.817 98.4433 240.289 97.9767 240.886 97.65C241.483 97.3233 242.151 97.16 242.888 97.16C243.625 97.16 244.293 97.3233 244.89 97.65C245.487 97.9767 245.959 98.4433 246.304 99.05C246.649 99.6567 246.822 100.352 246.822 101.136C246.822 101.92 246.645 102.615 246.29 103.222C245.935 103.829 245.45 104.3 244.834 104.636C244.227 104.963 243.555 105.126 242.818 105.126ZM242.818 103.74C243.229 103.74 243.611 103.642 243.966 103.446C244.33 103.25 244.624 102.956 244.848 102.564C245.072 102.172 245.184 101.696 245.184 101.136C245.184 100.576 245.077 100.105 244.862 99.722C244.647 99.33 244.363 99.036 244.008 98.84C243.653 98.644 243.271 98.546 242.86 98.546C242.449 98.546 242.067 98.644 241.712 98.84C241.367 99.036 241.091 99.33 240.886 99.722C240.681 100.105 240.578 100.576 240.578 101.136C240.578 101.967 240.788 102.611 241.208 103.068C241.637 103.516 242.174 103.74 242.818 103.74ZM256.186 97.286V105H254.59V104.09C254.338 104.407 254.006 104.659 253.596 104.846C253.194 105.023 252.765 105.112 252.308 105.112C251.701 105.112 251.155 104.986 250.67 104.734C250.194 104.482 249.816 104.109 249.536 103.614C249.265 103.119 249.13 102.522 249.13 101.822V97.286H250.712V101.584C250.712 102.275 250.884 102.807 251.23 103.18C251.575 103.544 252.046 103.726 252.644 103.726C253.241 103.726 253.712 103.544 254.058 103.18C254.412 102.807 254.59 102.275 254.59 101.584V97.286H256.186ZM260.687 98.406C260.921 98.014 261.229 97.7107 261.611 97.496C262.003 97.272 262.465 97.16 262.997 97.16V98.812H262.591C261.966 98.812 261.49 98.9707 261.163 99.288C260.846 99.6053 260.687 100.156 260.687 100.94V105H259.091V97.286H260.687V98.406ZM272.935 98.588H271.507V105H269.897V98.588H268.987V97.286H269.897V96.74C269.897 95.8533 270.131 95.2093 270.597 94.808C271.073 94.3973 271.815 94.192 272.823 94.192V95.522C272.338 95.522 271.997 95.6153 271.801 95.802C271.605 95.9793 271.507 96.292 271.507 96.74V97.286H272.935V98.588ZM274.618 101.108C274.618 100.333 274.776 99.6473 275.094 99.05C275.42 98.4527 275.859 97.9907 276.41 97.664C276.97 97.328 277.586 97.16 278.258 97.16C278.864 97.16 279.392 97.2813 279.84 97.524C280.297 97.7573 280.661 98.0513 280.932 98.406V97.286H282.542V105H280.932V103.852C280.661 104.216 280.292 104.519 279.826 104.762C279.359 105.005 278.827 105.126 278.23 105.126C277.567 105.126 276.96 104.958 276.41 104.622C275.859 104.277 275.42 103.801 275.094 103.194C274.776 102.578 274.618 101.883 274.618 101.108ZM280.932 101.136C280.932 100.604 280.82 100.142 280.596 99.75C280.381 99.358 280.096 99.0593 279.742 98.854C279.387 98.6487 279.004 98.546 278.594 98.546C278.183 98.546 277.8 98.6487 277.446 98.854C277.091 99.05 276.802 99.344 276.578 99.736C276.363 100.119 276.256 100.576 276.256 101.108C276.256 101.64 276.363 102.107 276.578 102.508C276.802 102.909 277.091 103.217 277.446 103.432C277.81 103.637 278.192 103.74 278.594 103.74C279.004 103.74 279.387 103.637 279.742 103.432C280.096 103.227 280.381 102.928 280.596 102.536C280.82 102.135 280.932 101.668 280.932 101.136ZM287.034 98.406C287.267 98.014 287.575 97.7107 287.958 97.496C288.35 97.272 288.812 97.16 289.344 97.16V98.812H288.938C288.313 98.812 287.837 98.9707 287.51 99.288C287.193 99.6053 287.034 100.156 287.034 100.94V105H285.438V97.286H287.034V98.406ZM300.949 97.16C301.556 97.16 302.097 97.286 302.573 97.538C303.058 97.79 303.436 98.1633 303.707 98.658C303.987 99.1527 304.127 99.75 304.127 100.45V105H302.545V100.688C302.545 99.9973 302.372 99.47 302.027 99.106C301.682 98.7327 301.21 98.546 300.613 98.546C300.016 98.546 299.54 98.7327 299.185 99.106C298.84 99.47 298.667 99.9973 298.667 100.688V105H297.085V100.688C297.085 99.9973 296.912 99.47 296.567 99.106C296.222 98.7327 295.75 98.546 295.153 98.546C294.556 98.546 294.08 98.7327 293.725 99.106C293.38 99.47 293.207 99.9973 293.207 100.688V105H291.611V97.286H293.207V98.168C293.468 97.8507 293.8 97.6033 294.201 97.426C294.602 97.2487 295.032 97.16 295.489 97.16C296.105 97.16 296.656 97.2907 297.141 97.552C297.626 97.8133 298 98.1913 298.261 98.686C298.494 98.2193 298.858 97.8507 299.353 97.58C299.848 97.3 300.38 97.16 300.949 97.16ZM314.028 100.954C314.028 101.243 314.009 101.505 313.972 101.738H308.078C308.124 102.354 308.353 102.849 308.764 103.222C309.174 103.595 309.678 103.782 310.276 103.782C311.134 103.782 311.741 103.423 312.096 102.704H313.818C313.584 103.413 313.16 103.997 312.544 104.454C311.937 104.902 311.181 105.126 310.276 105.126C309.538 105.126 308.876 104.963 308.288 104.636C307.709 104.3 307.252 103.833 306.916 103.236C306.589 102.629 306.426 101.929 306.426 101.136C306.426 100.343 306.584 99.6473 306.902 99.05C307.228 98.4433 307.681 97.9767 308.26 97.65C308.848 97.3233 309.52 97.16 310.276 97.16C311.004 97.16 311.652 97.3187 312.222 97.636C312.791 97.9533 313.234 98.4013 313.552 98.98C313.869 99.5493 314.028 100.207 314.028 100.954ZM312.362 100.45C312.352 99.862 312.142 99.3907 311.732 99.036C311.321 98.6813 310.812 98.504 310.206 98.504C309.655 98.504 309.184 98.6813 308.792 99.036C308.4 99.3813 308.166 99.8527 308.092 100.45H312.362ZM317.994 98.406C318.228 98.014 318.536 97.7107 318.918 97.496C319.31 97.272 319.772 97.16 320.304 97.16V98.812H319.898C319.273 98.812 318.797 98.9707 318.47 99.288C318.153 99.6053 317.994 100.156 317.994 100.94V105H316.398V97.286H317.994V98.406ZM325.371 105.126C324.765 105.126 324.219 105.019 323.733 104.804C323.257 104.58 322.879 104.281 322.599 103.908C322.319 103.525 322.17 103.101 322.151 102.634H323.803C323.831 102.961 323.985 103.236 324.265 103.46C324.555 103.675 324.914 103.782 325.343 103.782C325.791 103.782 326.137 103.698 326.379 103.53C326.631 103.353 326.757 103.129 326.757 102.858C326.757 102.569 326.617 102.354 326.337 102.214C326.067 102.074 325.633 101.92 325.035 101.752C324.457 101.593 323.985 101.439 323.621 101.29C323.257 101.141 322.94 100.912 322.669 100.604C322.408 100.296 322.277 99.89 322.277 99.386C322.277 98.9753 322.399 98.602 322.641 98.266C322.884 97.9207 323.229 97.65 323.677 97.454C324.135 97.258 324.657 97.16 325.245 97.16C326.123 97.16 326.827 97.384 327.359 97.832C327.901 98.2707 328.19 98.8727 328.227 99.638H326.631C326.603 99.2927 326.463 99.0173 326.211 98.812C325.959 98.6067 325.619 98.504 325.189 98.504C324.769 98.504 324.447 98.5833 324.223 98.742C323.999 98.9007 323.887 99.1107 323.887 99.372C323.887 99.5773 323.962 99.75 324.111 99.89C324.261 100.03 324.443 100.142 324.657 100.226C324.872 100.301 325.189 100.399 325.609 100.52C326.169 100.669 326.627 100.823 326.981 100.982C327.345 101.131 327.658 101.355 327.919 101.654C328.181 101.953 328.316 102.349 328.325 102.844C328.325 103.283 328.204 103.675 327.961 104.02C327.719 104.365 327.373 104.636 326.925 104.832C326.487 105.028 325.969 105.126 325.371 105.126Z" fill="white"/>
</g>
<defs>
<clipPath id="clip0_554_8183">
<rect width="342" height="167" rx="24" fill="white"/>
</clipPath>
<clipPath id="clip1_554_8183">
<rect width="159" height="122" fill="white" transform="translate(10 24)"/>
</clipPath>
</defs>
</svg>
