<svg width="16" height="16" viewBox="0 0 16 16" fill="none" xmlns="http://www.w3.org/2000/svg">
<path d="M14.8727 14.117L14.8725 14.1168L12.9521 12.2004C13.9587 11.0222 14.5677 9.49342 14.5677 7.82531C14.5677 4.10724 11.5437 1.08331 7.82568 1.08331C4.10764 1.08331 1.08301 4.10721 1.08301 7.82531C1.08301 11.5434 4.1076 14.568 7.82568 14.568C9.3355 14.568 10.7313 14.069 11.8561 13.2276L13.8127 15.1788L13.8131 15.1792C13.9596 15.3247 14.1517 15.3978 14.3426 15.3978C14.5335 15.3978 14.7271 15.3251 14.874 15.1766C15.1668 14.8832 15.165 14.4093 14.8727 14.117ZM2.58301 7.82531C2.58301 4.93476 4.93504 2.58331 7.82568 2.58331C10.7156 2.58331 13.0677 4.93474 13.0677 7.82531C13.0677 10.7159 10.7156 13.068 7.82568 13.068C4.93508 13.068 2.58301 10.7159 2.58301 7.82531Z" fill="black" stroke="black" stroke-width="0.5"/>
</svg>
